<?xml version="1.0" standalone="no"?>
<!DOCTYPE svg PUBLIC "-//W3C//DTD SVG 1.1//EN" "http://www.w3.org/Graphics/SVG/1.1/DTD/svg11.dtd" >
<svg xmlns="http://www.w3.org/2000/svg">
  <metadata>Created by iconfont</metadata>
  <defs>
  <font id="iconfont" horiz-adv-x="1024">
    <font-face
      font-family="iconfont"
      font-weight="400"
      font-stretch="normal"
      units-per-em="1024"
      ascent="896"
      descent="-128"
    />
      <missing-glyph />
      
      <glyph glyph-name="zuixiaohua" unicode="&#58891;" d="M926.72 305.664H105.472c-41.472 0-77.312 32.256-77.824 74.24-1.024 41.984 32.768 76.288 74.752 76.288h821.76c41.472 0 76.8-32.256 77.824-73.728 0.512-42.496-33.28-76.8-75.264-76.8z"  horiz-adv-x="1024" />
      
      <glyph glyph-name="guanbi" unicode="&#59132;" d="M579.392 384.704l429.376-428.544a48.128 48.128 0 0 0-34.176-82.304c-12.8 0-25.088 5.12-34.112 14.208L511.168 316.608 81.792-112a48.32 48.32 0 0 0-67.648 0.576 48.128 48.128 0 0 0-0.64 67.52L442.88 384.704 13.568 813.248A48.128 48.128 0 0 0 14.08 880.832 48.32 48.32 0 0 0 81.792 881.408l429.376-428.544L940.48 881.408a48.32 48.32 0 0 0 67.648-0.64c18.624-18.56 18.88-48.64 0.64-67.52L579.392 384.704z"  horiz-adv-x="1024" />
      
      <glyph glyph-name="zuidahuaxi" unicode="&#58956;" d="M926.45937303 798.45937303v-828.2973677H97.54062697V798.45937303h828.91874606m4.97102697 77.6722963h-838.8608c-39.7682157 0-72.07989097-32.31167525-72.07989097-72.07989096v-839.48217837c0-39.7682157 32.31167525-72.07989097 72.07989097-72.07989097h839.48217837c39.7682157 0 72.07989097 32.31167525 72.07989096 72.07989097v838.8608c0 40.38959408-32.31167525 72.70126933-72.70126933 72.70126933 0.62137837 0 0 0 0 0z"  horiz-adv-x="1024" />
      
      <glyph glyph-name="chuangkouhuanyuan" unicode="&#58971;" d="M836.224 789.333333h-490.666667a85.589333 85.589333 0 0 1-85.333333-85.333333V640h-64a85.589333 85.589333 0 0 1-85.333333-85.333333v-490.666667a85.589333 85.589333 0 0 1 85.333333-85.333333h490.666667a85.589333 85.589333 0 0 1 85.333333 85.333333V128h64a85.589333 85.589333 0 0 1 85.333333 85.333333V704a85.589333 85.589333 0 0 1-85.333333 85.333333z m-132.266667-725.333333a20.138667 20.138667 0 0 0-21.333333-21.333333h-490.666667a20.138667 20.138667 0 0 0-21.333333 21.333333V554.666667a20.138667 20.138667 0 0 0 21.333333 21.333333h494.933334a20.138667 20.138667 0 0 0 21.333333-21.333333v-490.666667z m153.6 149.333333a20.138667 20.138667 0 0 0-21.333333-21.333333h-64V554.666667a85.589333 85.589333 0 0 1-85.333333 85.333333h-362.666667V704a20.138667 20.138667 0 0 0 21.333333 21.333333h490.666667a20.138667 20.138667 0 0 0 21.333333-21.333333z"  horiz-adv-x="1024" />
      
      <glyph glyph-name="biaoji" unicode="&#59052;" d="M892.238614 447.306876l-83.626486-166.711116c-5.707553-5.671429-13.149046-8.272339-20.626662-8.091721v-0.722475h-168.300561v-224.436871c0-61.916111-50.248139-112.16425-112.272622-112.164251h-56.027939c-61.988359 0-112.272621 50.248139-112.272621 112.164251V271.781564H226.911349c-30.958056 0-56.136311 25.069884-56.136311 56.136311V608.382686c0 31.030303 25.178255 56.136311 56.136311 56.136311h112.16425V720.58306c0 62.024482 50.248139 112.272621 112.272621 112.272621h56.02794c61.988359 0 112.272621-50.248139 112.272621-112.272621v-56.02794h167.252972c7.838854 0.433485 15.749956-1.950683 21.710375-7.911101l83.626486-166.711116c5.888172-10.692631 8.38071-13.618655 8.019473-21.349138-0.903094-5.707553-1.697816-9.536671-8.019473-21.276889zM395.248033 47.344693c0-30.958056 25.069884-56.027939 56.136311-56.02794h56.027939c31.030303 0 56.136311 25.069884 56.136311 56.02794V271.781564h-168.300561v-224.436871zM563.548594 720.58306c0 31.030303-25.106008 56.136311-56.136311 56.136311h-56.027939c-31.030303 0-56.136311-25.106008-56.136311-56.136311v-56.02794H563.548594V720.58306z m212.082549-117.618937c-4.551593 3.215014-9.681166 5.418563-15.749956 5.418563H254.94338c-15.49709 0-28.032032-12.534942-28.032031-28.032032v-224.436871c0-15.49709 12.534942-28.032032 28.032031-28.032032h504.937807c5.707553 0 10.692631 2.059054 15.135852 4.985078l68.057149 135.644689-67.443045 134.452605z"  horiz-adv-x="1024" />
      
      <glyph glyph-name="jiubei" unicode="&#59053;" d="M868.228886 726.393001l-326.859239-427.648063v-252.55006h112.168207c15.497636 0 28.033021-12.535384 28.03302-28.033021 0-15.497636-12.535384-28.033021-28.03302-28.03302h-280.510831c-15.569886 0-28.105271 12.535384-28.10527 28.03302 0 15.461511 12.535384 28.033021 28.10527 28.033021h112.168207v252.55006L128.388344 727.729627c-10.945883 11.018133-10.945883 28.900021 0 39.954279 5.960629 5.960629 13.87201 8.453256 21.711141 7.911381H847.493121c4.371128 0.252875 8.633881-0.180625 12.716009-1.950752 10.331758-3.901503 17.773513-13.980385 17.773513-26.082269 0-8.525506-3.901503-16.003387-9.753757-21.169265zM207.321527 719.456996l305.942849-364.646017 280.14958 364.646017H207.321527z"  horiz-adv-x="1024" />
      
      <glyph glyph-name="shangcai" unicode="&#59054;" d="M933.001058 134.014817H91.396317c-15.461511 0-28.033021 12.643759-28.033021 28.10527v28.033021c0 238.425175 186.007761 434.331193 420.784309 448.889579-0.180625-2.312002 0 56.066041 0 56.066041h-56.138292c-15.497636 0-28.033021 12.535384-28.03302 28.03302 0 15.569886 12.535384 28.105271 28.03302 28.105271h168.306499c15.497636 0 28.105271-12.535384 28.10527-28.105271 0-15.497636-12.643759-28.033021-28.10527-28.03302h-56.029916v-56.066041c234.668172-14.594511 420.784308-210.500529 420.784308-448.889579v-28.033021c0.036125-15.497636-12.607634-28.105271-28.069146-28.10527zM512.21675 582.904396c-216.894659 0-392.679038-175.892754-392.679037-392.751288h785.430325c0 216.858534-175.892754 392.751288-392.751288 392.751288zM91.396317 77.948776h841.568616c15.461511 0 28.105271-12.535384 28.105271-28.105271 0-15.497636-12.643759-28.033021-28.105271-28.03302H91.396317a28.033021 28.033021 0 0 0-28.033021 28.03302c0.036125 15.569886 12.571509 28.105271 28.033021 28.105271z"  horiz-adv-x="1024" />
      
      <glyph glyph-name="redu" unicode="&#59055;" d="M508.857123-51.487194c-201.397023 0-364.646017 163.248995-364.646017 364.646017 0 83.340436 37.461652 186.007761 112.168207 224.44479 0 0 13.330135-138.431101 84.171311-196.339519 8.453256 92.877443-57.005292 398.820292 224.44479 504.95562 0-170.9075-3.648628-289.578212 84.171311-392.751288-8.019756 63.146546 14.486136 162.634869 137.527976 197.676145-1.083751-162.959994 86.808439-218.231285 86.808439-337.949623 0-201.469273-163.248995-364.682142-364.646017-364.682142z m231.92267 604.046567c-43.241657-18.965639-44.397658-121.524589-34.788401-183.262259-168.053623 30.236647-205.695901 236.907924-192.871516 390.728286-145.186481-97.862697-113.974458-380.938404-107.905454-496.502363-137.708601-7.911381-179.902632 144.102731-176.86813 161.912368-27.23827-30.706272-28.105271-62.532421-28.10527-101.691949 0-168.776124 144.463981-319.092359 322.668736-319.092359 133.265223 0 292.432089 139.839977 292.432089 304.244973 0 90.890567-69.938051 149.160234-74.562054 243.663303z"  horiz-adv-x="1024" />
      
      <glyph glyph-name="jiangbei" unicode="&#59056;" d="M962.948705 580.158894c0-92.949693-75.17618-168.306498-167.945248-168.306499-6.68313 0-13.07726 1.047626-19.471389 1.950752-37.642278-110.036831-126.220842-209.236153-232.464545-224.37254v-170.365624h83.990686c15.461511 0 27.924645-12.535384 27.924646-28.033021 0-15.497636-12.463134-28.105271-27.924646-28.10527h-224.011289c-15.461511 0-28.033021 12.643759-28.03302 28.10527a28.033021 28.033021 0 0 0 28.03302 28.033021h83.990687v170.365624c-106.315953 15.136386-194.822268 114.299584-232.464546 224.37254-6.39413-0.903126-12.824384-1.950751-19.471389-1.950752-92.805193 0-168.053623 75.356805-168.053623 168.306499 0 112.276582-23.770267 112.204332 168.053623 112.204332 0 61.990545 50.069287 112.276582 111.915332 112.276582h335.998871c61.846045 0 111.987582-50.249912 111.987582-112.276582 191.787765-0.036125 167.945248 0.07225 167.945248-112.204332zM235.065547 636.297185c-110.831581 0-111.987582 5.780004-111.987582-56.138291 0-61.990545 50.105412-112.168207 111.987582-112.168207V636.297185z m503.980244 56.029916c0 28.647146-29.189021 56.138291-56.029916 56.138291H346.980879c-26.768645 0-55.957666-28.358146-55.957666-56.138291v-168.306498c0-123.944966 100.246948-280.51083 224.011289-280.510831 123.655966 0 224.011289 156.565865 224.011289 280.510831V692.327101z m55.957666-56.029916v-168.306498c61.846045 0 111.987582 50.177662 111.987582 112.168207 0 61.918295-1.156001 56.138291-111.987582 56.138291z"  horiz-adv-x="1024" />
      
      <glyph glyph-name="weizhi" unicode="&#59057;" d="M512-65.106329c-55.957666-0.252875-336.649122 420.350808-336.649122 561.093911 0 185.935511 150.71361 336.612997 336.649122 336.612997s336.649122-150.71361 336.649122-336.612997c0-138.864602-281.558456-561.346786-336.649122-561.093911z m0 841.604741c-154.867988 0-280.51083-125.606717-280.51083-280.51083 0-117.334086 233.873421-477.175474 280.51083-476.922599 45.914909-0.252875 280.51083 361.178015 280.51083 476.922599 0 154.867988-125.534467 280.51083-280.51083 280.51083z m0-420.784308c-77.488182 0-140.309603 62.821421-140.309603 140.309603 0 77.488182 62.821421 140.273478 140.309603 140.273478 77.488182 0 140.309603-62.821421 140.309603-140.273478 0-77.524307-62.821421-140.309603-140.309603-140.309603z m0 224.44479c-46.456784 0-84.171312-37.714528-84.171312-84.135187 0-46.529034 37.714528-84.171312 84.171312-84.171312 46.529034 0 84.171312 37.642278 84.171312 84.171312 0 46.384534-37.642278 84.135187-84.171312 84.135187z"  horiz-adv-x="1024" />
      
      <glyph glyph-name="shuizhu" unicode="&#59058;" d="M511.241374-65.937205c-201.397023 0-364.646017 163.248995-364.646017 364.646018 0 201.505398 227.732167 394.196289 364.646017 533.06089 142.440979-142.440979 364.754392-331.555493 364.754393-533.06089 0-201.433148-163.35737-364.646017-364.754393-364.646018z m0 813.535596c-115.816835-117.153461-308.507726-279.78833-308.507726-449.684329 0-170.004375 138.069851-307.712975 308.507726-307.712975 170.437875 0 308.616101 137.708601 308.616101 307.712975 0 169.895999-188.066888 329.496366-308.616101 449.684329z m0-673.262118c-108.447329 0-196.339519 86.736189-196.339518 193.738517 0 106.930078 122.68059 209.344528 196.339518 283.184083 76.693431-75.718055 196.411769-176.254004 196.411769-283.184083 0-107.002328-87.964439-193.738517-196.411769-193.738517z m-0.903125 406.659423c-52.561913-56.391166-139.045227-120.549213-139.045227-202.372398s62.713046-148.220984 139.948352-148.220984c77.307557 0 139.948353 66.361674 139.948353 148.220984s-86.230438 144.463981-140.851478 202.372398z"  horiz-adv-x="1024" />
      
      <glyph glyph-name="dengji" unicode="&#59059;" d="M961.864954 104.71742s-88.795315-17.773513-178.81888-36.305651c-59.967544-66.831299-119.754463-133.518098-119.754463-133.518098L534.650392 154.461582c-7.297255-0.4335-14.486136-1.083751-21.891766-1.083751-7.47788 0-14.666761 0.614125-21.964017 1.083751l-128.641219-219.567911S302.366471 1.616595 242.398928 68.411769c-90.023566 18.496014-178.818881 36.305652-178.818881 36.305651l139.948352 238.786425c-22.505891 45.192408-35.474776 95.73132-35.474776 149.449235 0 187.633387 154.253863 339.647499 344.741128 339.647499 190.378889 0 344.632752-152.050236 344.632752-339.647499 0-53.754039-13.00501-104.256826-35.510901-149.449235l139.948352-238.786425z m-291.890213-67.951174s43.061032 40.82128 83.629436 80.233683c57.366542 16.292387 115.383335 32.909899 115.383334 32.9099l-81.317434 138.792351c-46.890284-61.195795-114.227334-106.063078-192.076766-125.100966l74.38143-126.834968zM156.493615 149.909829s58.016792-16.617512 115.383334-32.9099c40.568405-39.412404 83.629436-80.233684 83.629436-80.233683L429.887815 163.637339c-77.849432 19.037889-145.186481 63.869047-192.076766 125.100966l-81.317434-138.828476z m356.265011 626.913709c-154.795738 0-280.330205-125.715092-280.330206-280.763706 0-155.156989 125.534467-280.835956 280.330206-280.835956 154.723488 0 280.22183 125.715092 280.22183 280.835956 0.036125 155.084739-125.498342 280.763706-280.22183 280.763706z m0-477.247725c-108.519579 0-196.411769 87.964439-196.411769 196.411769 0 108.447329 87.892189 196.339519 196.411769 196.339519 108.447329 0 196.339519-87.892189 196.339518-196.339519 0-108.447329-87.892189-196.411769-196.339518-196.411769z m0 336.721372c-77.488182 0-140.273478-62.821421-140.273478-140.273478 0-77.488182 62.821421-140.309603 140.273478-140.309603 77.379807 0 140.201228 62.821421 140.201227 140.309603 0 77.452057-62.785296 140.273478-140.201227 140.273478z"  horiz-adv-x="1024" />
      
      <glyph glyph-name="hongjiu-10" unicode="&#59060;" d="M595.810061 495.120581h-0.36125V803.736682c0 15.497636-12.643759 28.033021-28.10527 28.033021H455.175333a28.033021 28.033021 0 0 1-28.03302-28.033021v-308.616101h-0.36125c-56.680167 0-83.810061-50.286037-83.810062-112.168207v-448.889579h336.649122V382.952374c0 61.918295-28.683271 112.168207-83.810062 112.168207z m-112.637832 280.510831h56.138291v-56.138291h-56.138291V775.631412z m0-112.168207h56.138291v-168.306499h-56.138291V663.463205z m140.309603-673.262118h-224.44479V382.952374c0 30.959148 25.179143 56.029916 56.138291 56.029916h112.168208c31.031398 0 56.138291-25.106893 56.138291-56.029916v-392.751287z"  horiz-adv-x="1024" />
      
      <glyph glyph-name="ditu-03" unicode="&#59061;" d="M736.408664 832.636704l-224.444789-168.306499-224.372539 84.135187-224.44479-140.309603v-673.262118l224.44479 140.273478 224.372539-84.171312 224.444789 168.306498 224.44479-168.306498V664.29408l-224.44479 168.342624z m168.306499-743.453045l-168.306499 126.329218-224.444789-168.414874-224.372539 84.135187-168.306499-105.159952V587.167149l168.306499 105.159952 224.372539-84.171312 224.444789 168.306498 168.306499-126.220842v-561.057786zM736.408664 580.158894c0 15.497636 12.535384 28.033021 28.105271 28.03302a28.033021 28.033021 0 0 0 28.03302-28.03302v-224.44479c0-15.497636-12.535384-28.033021-28.03302-28.03302-15.569886 0-28.105271 12.535384-28.105271 28.03302V580.158894zM540.069146 243.509772c-15.497636 0-28.105271 12.535384-28.105271 28.033021v168.306498c0 15.461511 12.643759 28.105271 28.105271 28.10527 15.497636 0 28.033021-12.643759 28.03302-28.10527v-168.306498c0-15.497636-12.535384-28.033021-28.03302-28.033021zM315.624356 215.476752a28.033021 28.033021 0 0 0-28.03302 28.03302v280.510831c0 15.461511 12.535384 28.105271 28.03302 28.10527 15.497636 0 28.033021-12.643759 28.033021-28.10527v-280.510831a28.033021 28.033021 0 0 0-28.033021-28.03302z"  horiz-adv-x="1024" />
      
      <glyph glyph-name="xiayishou" unicode="&#59062;" d="M945.247442 341.480844l-476.561349-341.959501c-28.900021-18.676639-67.6983-9.537007-67.770549 46.095534v147.028858l-269.095322-193.124392c-29.008396-18.676639-66.903549-10.404008-67.806675 46.962535V718.156495C63.110421 781.664291 100.210823 781.122416 131.784097 764.143653l269.095322-193.052141V719.854371C400.987794 785.132294 437.11282 781.122416 468.686093 764.143653l476.561349-341.88725c20.91639-14.413886 19.941015-66.433924 0-80.775559zM120.115713 67.653143l336.974247 235.643548v-235.643548l449.250829 314.21548-449.250829 314.215481v-235.643548L120.115713 696.084104V67.653143z"  horiz-adv-x="1024" />
      
      <glyph glyph-name="bofang" unicode="&#59063;" d="M798.579835 342.636845L270.865448-1.201157c-28.647146-18.857264-67.084174-9.067382-67.084174 45.987159V721.805122c0 55.415791 35.836026 62.965921 67.084174 45.914909l527.714387-343.765752c29.550272-19.83264 30.417272-59.786919 0-81.317434zM259.37769 67.291893l500.692867 315.985606L259.37769 699.299231V67.291893z"  horiz-adv-x="1024" />
      
      <glyph glyph-name="guanbishengyin" unicode="&#59064;" d="M805.913215 383.5665l117.081211-117.081211c12.643759-12.643759 13.79976-31.934523 2.673252-43.133282-11.198758-11.198758-30.525647-9.970507-43.133282 2.673252l-117.08121 117.081211-117.081211-117.081211c-12.643759-12.643759-31.934523-13.87201-43.133282-2.673252-11.198758 11.198758-9.970507 30.525647 2.673252 43.133282l116.972836 117.081211-116.972836 117.08121c-12.643759 12.643759-13.87201 31.934523-2.673252 43.133282 11.198758 11.126508 30.525647 9.970507 43.133282-2.673252l117.081211-117.081211 117.08121 117.081211c12.643759 12.643759 31.934523 13.79976 43.133282 2.673252 11.126508-11.198758 9.970507-30.525647-2.673252-43.133282l-117.081211-117.08121zM484.83398 720.179496L232.392295 551.872998h-84.171311c-30.959148 0-56.066041-25.070768-56.066042-56.138291v-224.372539c0-31.031398 25.070768-56.138291 56.066042-56.138292h84.171311l252.47781-168.306498c31.067523 0 56.138291 25.070768 56.138291 56.138291V664.041205c-0.036125 31.067523-25.106893 56.138291-56.174416 56.138291zM232.392295 299.395188c0-15.497636-12.535384-28.033021-28.03302-28.03302h-28.033021c-15.461511 0-28.105271 12.535384-28.10527 28.03302v168.306498c0 15.461511 12.643759 28.033021 28.10527 28.033021h28.033021a28.033021 28.033021 0 0 0 28.03302-28.033021v-168.306498z m252.441685-196.339519l-196.339519 122.68059V541.360615l196.339519 122.68059V103.055669z"  horiz-adv-x="1024" />
      
      <glyph glyph-name="tingzhishengyin" unicode="&#59065;" d="M850.130248-10.087914H176.86813c-30.959148 0-56.029916 25.179143-56.029916 56.138291V719.312496c0 30.959148 25.106893 56.138291 56.029916 56.138291h673.262118c31.031398 0 56.138291-25.179143 56.138291-56.138291v-673.262119c0-30.959148-25.070768-56.138291-56.138291-56.138291z m0 701.403514a28.033021 28.033021 0 0 1-28.033021 28.033021H204.9734c-15.569886 0-28.105271-12.535384-28.10527-28.033021v-617.232202c0-15.497636 12.535384-28.033021 28.10527-28.033021h617.123827c15.497636 0 28.033021 12.535384 28.033021 28.033021V691.3156z"  horiz-adv-x="1024" />
      
      <glyph glyph-name="zanting" unicode="&#59066;" d="M736.517039-10.087914h-112.168207c-30.959148 0-56.138291 25.179143-56.138291 56.138291V719.312496c0 30.959148 25.179143 56.138291 56.138291 56.138291h112.168207c31.031398 0 56.138291-25.179143 56.138292-56.138291v-673.262119c0-30.959148-25.106893-56.138291-56.138292-56.138291z m0 701.403514a28.033021 28.033021 0 0 1-28.03302 28.033021h-56.138291c-15.497636 0-28.033021-12.535384-28.033021-28.033021v-617.232202c0-15.497636 12.535384-28.033021 28.033021-28.033021h56.138291c15.497636 0 28.033021 12.535384 28.03302 28.033021V691.3156z m-336.649121-701.403514H287.699711c-30.959148 0-56.138291 25.179143-56.138291 56.138291V719.312496c0 30.959148 25.179143 56.138291 56.138291 56.138291h112.168207c31.031398 0 56.138291-25.179143 56.138291-56.138291v-673.262119c0-30.959148-25.070768-56.138291-56.138291-56.138291z m0 701.403514a28.033021 28.033021 0 0 1-28.033021 28.033021H315.732731c-15.497636 0-28.033021-12.535384-28.03302-28.033021v-617.232202c0-15.497636 12.535384-28.033021 28.03302-28.033021h56.138291a28.033021 28.033021 0 0 1 28.033021 28.033021V691.3156h-0.036125z"  horiz-adv-x="1024" />
      
      <glyph glyph-name="tiaojiemoshi" unicode="&#59067;" d="M819.857475 48.904255v-30.886898c0-15.569886-12.535384-28.105271-28.03302-28.105271-15.497636 0-28.033021 12.535384-28.033021 28.105271v30.886898c-64.049672 13.00501-112.276582 69.576801-112.276582 137.455725 0 67.806675 48.22691 124.378466 112.276582 137.455726V747.345516c0 15.461511 12.535384 28.105271 28.033021 28.105271 15.497636 0 28.033021-12.643759 28.03302-28.105271v-423.52981c64.049672-13.07726 112.276582-69.649051 112.276583-137.455726-0.036125-67.878925-48.22691-124.450716-112.276583-137.455725z m-28.03302 221.590912c-46.529034 0-84.171312-37.714528-84.171312-84.171312 0-46.529034 37.642278-84.135187 84.171312-84.135186 46.456784 0 84.171312 37.642278 84.171312 84.135186-0.036125 46.456784-37.750653 84.171312-84.171312 84.171312z m-252.47781 171.088125v-423.565935c0-15.569886-12.535384-28.105271-28.033021-28.105271-15.569886 0-28.105271 12.535384-28.10527 28.105271V441.583292c-63.977422 13.07726-112.168207 69.649051-112.168207 137.455726 0 67.878925 48.22691 124.450716 112.168207 137.455726v30.886897c0 15.461511 12.535384 28.105271 28.10527 28.105271 15.461511 0 28.033021-12.643759 28.033021-28.105271v-30.886897c63.977422-12.968884 112.168207-69.576801 112.168207-137.455726 0-67.806675-48.190785-124.378466-112.168207-137.455726z m-28.033021 221.590912c-46.529034 0-84.171312-37.642278-84.171311-84.171311 0-46.456784 37.642278-84.171312 84.171311-84.171312 46.420659 0 84.171312 37.714528 84.171312 84.171312 0 46.565159-37.714528 84.171312-84.171312 84.171311zM258.763565 161.072462v-143.055105c0-15.569886-12.535384-28.105271-28.033021-28.105271s-28.033021 12.535384-28.033021 28.105271v143.055105c-64.049672 13.00501-112.276582 69.576801-112.276582 137.455725 0 67.878925 48.22691 124.450716 112.276582 137.455726V747.345516c0 15.461511 12.535384 28.105271 28.033021 28.105271s28.033021-12.643759 28.033021-28.105271v-311.361603c64.049672-12.968884 112.276582-69.576801 112.276582-137.455726 0-67.878925-48.22691-124.450716-112.276582-137.455725z m-28.033021 221.627037c-46.456784 0-84.171312-37.714528-84.171312-84.171312 0-46.529034 37.714528-84.171312 84.171312-84.171311 46.529034 0 84.171312 37.642278 84.171312 84.171311 0 46.456784-37.642278 84.171312-84.171312 84.171312z"  horiz-adv-x="1024" />
      
      <glyph glyph-name="maikefeng" unicode="&#59068;" d="M769.643689 467.340436h-1.408876c-19.760389-35.583151-48.479786-66.470049-83.521062-90.023566l-55.34354-386.899033c0-30.959148-25.070768-56.138291-56.029916-56.138291h-112.276582c-30.959148 0-56.029916 25.179143-56.029916 56.138291L349.690256 377.31687c-35.041276 23.589642-63.796797 54.440415-83.521061 90.023566h-1.408876c-30.959148 0-56.138291 25.070768-56.138291 56.029916V579.508643c0 23.120017 13.980385 42.880406 33.99365 51.514288 26.407394 114.769209 139.334227 200.963522 274.622451 200.963522 135.324349 0 248.215057-86.194313 274.622451-200.963522 19.941015-8.633881 33.99365-28.358146 33.99365-51.514288v-56.138291c-0.07225-30.923023-25.251393-56.029916-56.210541-56.029916z m-308.616101-420.784308c7.911381-28.285896 7.369505-56.138291 28.10527-56.138291h56.029916c20.62739 0 21.964016 26.94927 28.105271 56.138291l53.465039 300.524095c-33.70465-12.896634-70.732802-20.013265-109.60333-20.013265-38.870528 0-75.970931 7.11663-109.603331 20.013265l53.501165-300.524095z m56.138291 336.612996c76.223806 0 143.488605 33.271149 184.05701 84.171312H333.108869c40.568405-50.900162 107.797079-84.171312 184.05701-84.171312z m0 392.679038c-101.691949 0-187.452762-59.172793-215.016158-140.201228h430.032315c-27.67177 81.064559-113.324208 140.201228-215.016157 140.201228z m224.444789-196.339519H292.721089c-15.497636 0-28.033021-12.535384-28.03302-28.03302 0-15.569886 12.535384-28.105271 28.03302-28.105271h448.889579c15.497636 0 28.033021 12.535384 28.033021 28.105271 0 15.497636-12.535384 28.033021-28.033021 28.03302z"  horiz-adv-x="1024" />
      
      <glyph glyph-name="zhongdengyinliang" unicode="&#59069;" d="M694.395259 189.972483V246.110774c63.977422 13.00501 112.168207 69.576801 112.168207 137.455726 0 67.878925-48.22691 124.450716-112.168207 137.455725V577.124391c95.00882-13.79976 168.306498-94.755944 168.306498-193.594016 0-98.801947-73.297679-179.758132-168.306498-193.557892zM554.085656 720.179496L301.607846 551.872998h-84.171312c-30.959148 0-56.138291-25.070768-56.138291-56.138291v-224.372539c0-31.031398 25.179143-56.138291 56.138291-56.138292h84.171312l252.47781-168.306498c30.959148 0 56.138291 25.070768 56.138291 56.138291V664.041205c0 31.067523-25.179143 56.138291-56.138291 56.138291zM301.607846 299.395188c0-15.497636-12.535384-28.033021-28.033021-28.03302h-28.10527a28.033021 28.033021 0 0 0-28.033021 28.03302v168.306498a28.033021 28.033021 0 0 0 28.033021 28.033021h28.10527c15.497636 0 28.033021-12.535384 28.033021-28.033021v-168.306498z m252.47781-196.339519l-196.339519 122.68059V541.360615l196.339519 122.68059V103.055669z"  horiz-adv-x="1024" />
      
      <glyph glyph-name="yinxianghuanrao" unicode="&#59070;" d="M847.962746-65.720454H174.700628c-61.990545 0-112.276582 50.249912-112.276582 112.276582V719.818246c0 61.918295 50.249912 112.168207 112.276582 112.168207h673.262118c61.918295 0 112.168207-50.249912 112.168207-112.168207v-673.262118c0-62.02667-50.249912-112.276582-112.168207-112.276582z m56.029916 785.5387c0 30.959148-25.106893 56.066041-56.029916 56.066041H174.700628c-31.031398 0-56.138291-25.070768-56.138291-56.066041v-673.262118c0-31.031398 25.070768-56.138291 56.138291-56.138291h673.262118c30.959148 0 56.029916 25.106893 56.029916 56.138291V719.818246z m-84.135187-673.262118a28.033021 28.033021 0 0 0 0 56.066041c15.497636 0 28.105271-12.535384 28.105271-28.033021 0-15.497636-12.643759-28.033021-28.105271-28.03302z m-308.543851 0c-185.935511 0-336.649122 150.71361-336.649121 336.649121 0 185.827136 150.71361 336.612997 336.649121 336.612997 185.827136 0 336.649122-150.78586 336.649122-336.612997 0-185.935511-150.78586-336.649122-336.649122-336.649121z m0 617.123827c-154.976364 0-280.583081-125.606717-280.58308-280.474706 0-154.976364 125.606717-280.583081 280.58308-280.58308 154.867988 0 280.51083 125.606717 280.510831 280.58308 0 154.867988-125.606717 280.474705-280.510831 280.474706z m0-448.817329c-92.985818 0-168.306498 75.356805-168.306498 168.306498s75.356805 168.306498 168.306498 168.306499c92.949693 0 168.306498-75.356805 168.306499-168.306499s-75.32068-168.306498-168.306499-168.306498z m0 280.510831c-62.02667 0-112.276582-50.249912-112.276582-112.168208 0-61.990545 50.249912-112.276582 112.276582-112.276582 61.918295 0 112.168207 50.249912 112.168208 112.276582 0.036125 61.88217-50.249912 112.168207-112.168208 112.168208z m308.543851 168.306498a28.033021 28.033021 0 0 0-28.03302 28.03302c0 15.497636 12.535384 28.105271 28.03302 28.105271 15.497636 0 28.105271-12.643759 28.105271-28.105271 0-15.497636-12.643759-28.033021-28.105271-28.03302z m-617.123827 0a28.033021 28.033021 0 0 0-28.03302 28.03302c0 15.497636 12.535384 28.105271 28.03302 28.105271 15.461511 0 28.033021-12.643759 28.033021-28.105271-0.036125-15.497636-12.571509-28.033021-28.033021-28.03302z m0-561.093911a28.033021 28.033021 0 0 0 28.033021-28.033021c0-15.497636-12.535384-28.033021-28.033021-28.03302a28.033021 28.033021 0 0 0-28.03302 28.03302c0 15.497636 12.535384 28.033021 28.03302 28.033021z"  horiz-adv-x="1024" />
      
      <glyph glyph-name="diannao" unicode="&#59071;" d="M832.46511 104.970296h-196.411769v-112.276583h56.138291a28.033021 28.033021 0 0 0 28.033021-28.03302c0-15.461511-12.535384-28.105271-28.033021-28.105271H355.54251c-15.497636 0-28.033021 12.643759-28.03302 28.105271 0 15.497636 12.535384 28.033021 28.03302 28.03302h56.138292v112.276583H187.199887c-61.990545 0-112.168207 50.177662-112.168207 112.204332V722.130248c0 61.990545 50.177662 112.168207 112.168207 112.168207h645.229098c61.918295 0 112.168207-50.177662 112.168207-112.168207v-504.95562c0.036125-61.990545-50.213787-112.204332-112.132082-112.204332z m-252.47781-112.240458v112.276583h-112.276582v-112.276583h112.276582z m308.507726 729.40041c0 30.959148-25.070768 56.138291-56.029916 56.138291H187.199887c-30.959148 0-56.138291-25.179143-56.138291-56.138291v-392.751288h757.43343V722.130248z m0-448.817329H131.061596v-56.138291c0-30.959148 25.179143-56.138291 56.138291-56.138291h645.229098c30.959148 0 56.029916 25.179143 56.029916 56.138291v56.138291h0.036125z"  horiz-adv-x="1024" />
      
      <glyph glyph-name="fangyingji" unicode="&#59072;" d="M844.241868 616.934171h-259.59444l246.08368 169.281874c13.00501 8.995132 16.725887 27.418895 8.272632 41.290905-8.344881 13.79976-25.793269 17.701263-38.798279 8.814506 0 0-269.564947-186.188386-292.323714-199.879771L215.016157 836.321456c-13.00501 8.886757-30.345022 4.985254-38.798278-8.814506-8.453256-13.87201-4.696253-32.295774 8.272631-41.290905l246.08368-169.281874H170.97975c-61.918295 0-112.168207-50.177662-112.168207-112.168208v-448.817328c0-61.990545 50.249912-112.276582 112.168207-112.276583H844.241868c61.990545 0 112.276582 50.249912 112.276583 112.276583V504.729838c0 62.02667-50.249912 112.204332-112.276583 112.204333z m56.138291-560.985536c0-31.031398-25.070768-56.138291-56.138291-56.138291H170.97975c-30.959148 0-56.138291 25.106893-56.138291 56.138291V504.729838c0 30.959148 25.179143 56.138291 56.138291 56.138292H844.241868c31.031398 0 56.138291-25.179143 56.138291-56.138292v-448.781203zM816.244973 55.948635H704.076766c-15.569886 0-28.105271 12.535384-28.105271 28.03302 0 15.461511 12.535384 28.033021 28.105271 28.033021h112.168207c15.497636 0 28.033021-12.535384 28.03302-28.033021-0.036125-15.497636-12.571509-28.033021-28.03302-28.03302zM816.244973 140.083821H704.076766c-15.569886 0-28.105271 12.535384-28.105271 28.033021 0 15.461511 12.535384 28.033021 28.105271 28.03302h112.168207c15.497636 0 28.033021-12.535384 28.03302-28.03302-0.036125-15.497636-12.571509-28.033021-28.03302-28.033021zM760.106682 504.729838c-46.420659 0-84.171312-37.714528-84.171312-84.135186 0-46.529034 37.714528-84.171312 84.171312-84.171312 46.529034 0 84.171312 37.642278 84.171311 84.171312-0.036125 46.420659-37.642278 84.135187-84.171311 84.135186z m28.10527-112.168207h-56.138291v56.029916h56.138291v-56.029916zM563.767163 504.729838H227.118041c-30.959148 0-56.138291-25.070768-56.138291-56.138291v-336.649121c0-30.959148 25.179143-56.029916 56.138291-56.029916h336.649122c30.959148 0 56.138291 25.106893 56.138291 56.029916v336.649121c0 31.067523-25.179143 56.138291-56.138291 56.138291z m0-364.646017c0-15.569886-12.535384-28.105271-28.033021-28.10527H255.151062c-15.497636 0-28.033021 12.535384-28.033021 28.10527V420.594652c0 15.497636 12.535384 28.033021 28.033021 28.03302h280.58308a28.033021 28.033021 0 0 0 28.033021-28.03302v-280.510831z"  horiz-adv-x="1024" />
      
      <glyph glyph-name="zuidayinliang" unicode="&#59073;" d="M610.621322-8.787413V48.86813c168.306498 37.100402 280.583081 166.969872 280.583081 334.662245 0 168.667749-115.816835 303.016722-280.583081 334.662245V775.884287c190.126014-27.74402 336.721372-191.968391 336.721372-392.317787s-146.595357-364.573767-336.721372-392.353913zM470.420095 720.179496L217.942285 551.872998h-84.171312c-31.031398 0-56.138291-25.070768-56.138291-56.138291v-224.372539c0-31.031398 25.070768-56.138291 56.138291-56.138292h84.171312l252.47781-168.306498c30.959148 0 56.029916 25.070768 56.029916 56.138291V664.041205c0 31.031398-25.070768 56.138291-56.029916 56.138291zM217.942285 299.395188c0-15.497636-12.535384-28.033021-28.105271-28.03302h-28.03302a28.033021 28.033021 0 0 0-28.033021 28.03302v168.306498a28.033021 28.033021 0 0 0 28.033021 28.033021h28.03302c15.569886 0 28.105271-12.535384 28.105271-28.033021v-168.306498z m252.47781-196.339519l-196.411769 122.68059V541.360615l196.411769 122.68059V103.055669zM779.036196 383.530375c0-98.838072-73.297679-179.794257-168.414874-193.594017V246.110774c64.049672 13.00501 112.276582 69.576801 112.276582 137.455726 0 67.878925-48.22691 124.450716-112.276582 137.455725V577.124391c95.08107-13.79976 168.414873-94.755944 168.414874-193.594016z"  horiz-adv-x="1024" />
      
      <glyph glyph-name="suishenting" unicode="&#59074;" d="M848.685247 440.102166c0 200.060397-150.71361 336.649122-336.649122 336.649122S175.423128 627.085303 175.423128 440.102166h112.276583c61.918295 0 112.168207-50.177662 112.168207-112.168207v-168.306498c0-60.328794-52.598039-109.60333-112.168207-112.168207 0.108375-0.180625-112.276582 0-112.276583 0-61.918295 0-112.168207 50.177662-112.168207 112.168207v168.306498c0 42.157906 23.481267 78.391307 57.836168 97.573696-0.794751 9.537007-1.697876 18.929514-1.697877 28.647146 0 209.163903 175.784379 378.698652 392.679038 378.698653 216.894659 0 392.751288-169.570874 392.751288-378.698653 0-9.681507-0.975376-19.110139-1.770127-28.647146 34.318775-19.218514 57.908417-55.415791 57.908418-97.573696v-168.306498c0-61.990545-50.249912-112.168207-112.276582-112.168207v-84.171312c0-15.569886-12.535384-28.105271-28.033021-28.105271-15.497636 0-28.033021 12.535384-28.03302 28.105271v84.171312s-56.210541-0.180625-56.138292 0c-59.606294 2.564877-112.168207 51.875538-112.168207 112.168207v168.306498c0 62.02667 50.177662 112.168207 112.168207 112.168207h112.204333zM263.134693 103.453045h24.565018c30.959148 0 56.066041 25.179143 56.066041 56.138291v168.306498c0 30.959148-25.070768 56.138291-56.066041 56.138291h-35.330276c-13.07726-38.870528-20.808015-81.317435-20.808015-126.220842 0-56.138291 11.849009-108.447329 31.573273-154.362238z m-143.741481 224.444789v-168.306498c0-30.959148 25.070768-56.138291 56.029916-56.138291h26.51577c-16.653637 46.637409-26.515769 98.729697-26.51577 154.362238 0 44.650533 6.574755 86.989064 17.629013 126.220842h-17.629013c-30.959148 0-56.029916-25.179143-56.029916-56.138291z m652.417978 56.138291h-35.330276c-30.959148 0-56.138291-25.179143-56.138291-56.138291v-168.306498c0-30.959148 25.179143-56.138291 56.138291-56.138291h24.456643c19.760389 45.914909 31.681648 98.223947 31.681649 154.362238 0.036125 44.903408-7.803006 87.350314-20.808016 126.220842z m133.012348-56.138291c0 30.959148-25.070768 56.138291-56.138291 56.138291h-17.629013c11.018133-39.231779 17.629013-81.57031 17.629013-126.220842 0-55.596416-9.789882-107.724829-26.407395-154.362238h26.407395c31.067523 0 56.138291 25.179143 56.138291 56.138291v168.306498z"  horiz-adv-x="1024" />
      
      <glyph glyph-name="tiaojieqi" unicode="&#59075;" d="M821.085726-65.720454H203.853524c-61.918295 0-112.168207 50.249912-112.168207 112.276582V719.818246c0 61.918295 50.249912 112.168207 112.168207 112.168207h617.232202c61.918295 0 112.168207-50.249912 112.168208-112.168207v-673.262118c0-62.02667-50.249912-112.276582-112.168208-112.276582zM877.115642 719.818246c0 30.959148-25.106893 56.066041-56.029916 56.066041H203.853524c-30.959148 0-56.138291-25.070768-56.138291-56.066041v-56.138291H877.115642V719.818246z m0-112.276582H147.715233v-560.985536c0-31.031398 25.179143-56.138291 56.138291-56.138291h617.232202c30.959148 0 56.029916 25.106893 56.029916 56.138291V607.541664z m-140.201227-504.95562c-46.529034 0-84.171312 37.714528-84.171312 84.171312 0 46.529034 37.642278 84.135187 84.171312 84.135186 46.456784 0 84.171312-37.642278 84.171311-84.135186 0-46.456784-37.714528-84.171312-84.171311-84.171312z m28.03302 112.276582h-56.138291v-56.138291h56.138291v56.138291z m-28.03302 112.168207c-46.529034 0-84.171312 37.642278-84.171312 84.171312 0 46.420659 37.642278 84.135187 84.171312 84.135187 46.456784 0 84.171312-37.714528 84.171311-84.135187 0-46.529034-37.714528-84.171312-84.171311-84.171312z m28.03302 112.204332h-56.138291v-56.029916h56.138291v56.029916z m-252.47781-336.649121c-46.529034 0-84.171312 37.714528-84.171311 84.171312 0 46.529034 37.642278 84.135187 84.171311 84.135186 46.456784 0 84.171312-37.642278 84.171312-84.135186 0-46.456784-37.750653-84.171312-84.171312-84.171312z m28.033021 112.276582H484.436605v-56.138291h56.029916v56.138291h0.036125z m-28.033021 112.168207c-46.529034 0-84.171312 37.642278-84.171311 84.171312 0 46.420659 37.642278 84.135187 84.171311 84.135187 46.456784 0 84.171312-37.714528 84.171312-84.135187 0-46.529034-37.750653-84.171312-84.171312-84.171312z m28.033021 112.204332H484.436605v-56.029916h56.029916v56.029916h0.036125z m-252.47781-336.649121c-46.420659 0-84.171312 37.714528-84.171312 84.171312 0 46.529034 37.714528 84.135187 84.171312 84.135186 46.529034 0 84.171312-37.642278 84.171312-84.135186-0.036125-46.456784-37.642278-84.171312-84.171312-84.171312z m28.105271 112.276582H259.991815v-56.138291h56.138292v56.138291z m-28.105271 112.168207c-46.420659 0-84.171312 37.642278-84.171312 84.171312 0 46.420659 37.714528 84.135187 84.171312 84.135187 46.529034 0 84.171312-37.714528 84.171312-84.135187-0.036125-46.529034-37.642278-84.171312-84.171312-84.171312z m28.105271 112.204332H259.991815v-56.029916h56.138292v56.029916z"  horiz-adv-x="1024" />
      
      <glyph glyph-name="yinleyinxiang" unicode="&#59076;" d="M736.444789-65.034079H287.663586c-61.990545 0-112.276582 50.177662-112.276583 112.168207V720.396246c0 62.02667 50.249912 112.204332 112.276583 112.204333h448.817328c61.990545 0 112.168207-50.177662 112.168208-112.204333v-673.262118c0-61.990545-50.177662-112.168207-112.204333-112.168207zM792.583081 720.396246c0 30.959148-25.179143 56.138291-56.138292 56.138292H287.663586c-31.031398 0-56.138291-25.179143-56.138291-56.138292v-673.262118c0-30.959148 25.070768-56.138291 56.138291-56.138291H736.480914c30.959148 0 56.138291 25.179143 56.138292 56.138291V720.396246h-0.036125z m-280.583081-280.51083c-77.379807 0-140.201228 62.821421-140.201228 140.201228 0 77.488182 62.821421 140.273478 140.201228 140.273477 77.488182 0 140.309603-62.821421 140.309603-140.273477 0-77.379807-62.821421-140.201228-140.309603-140.201228z m0 224.625414c-46.529034 0-84.351937-37.822903-84.351937-84.424186 0-46.529034 37.822903-84.351937 84.351937-84.351937 46.601284 0 84.424187 37.822903 84.424187 84.351937 0 46.637409-37.786778 84.424187-84.424187 84.424186zM315.660481 187.407606c0 108.447329 87.892189 196.339519 196.339519 196.339519 108.447329 0 196.411769-87.892189 196.411769-196.339519 0-108.519579-87.964439-196.411769-196.411769-196.411769-108.447329 0-196.339519 87.892189-196.339519 196.411769z m196.339519-140.273478c77.488182 0 140.309603 62.821421 140.309603 140.273478 0 77.415932-62.821421 140.201228-140.309603 140.201228-77.379807 0-140.201228-62.821421-140.201228-140.201228 0-77.488182 62.821421-140.273478 140.201228-140.273478z"  horiz-adv-x="1024" />
      
      <glyph glyph-name="jiaopiansheying" unicode="&#59077;" d="M739.443167-36.784308H178.385381V692.507726c0 61.990545 50.177662 112.276582 112.168207 112.276582h448.889579c61.918295 0 112.168207-50.286037 112.168207-112.276582v-729.328159c-86.013688 0.036125-50.249912 0.036125-112.168207 0.036125zM290.553588 636.47781H234.415297v-56.138291h56.138291V636.47781z m0-112.276582H234.415297v-56.029916h56.138291v56.029916z m0-112.168207H234.415297v-56.138292h56.138291v56.138292z m0-112.204333H234.415297v-56.138291h56.138291v56.138291z m0-112.276582H234.415297v-56.066041h56.138291v56.066041z m0-112.168207H234.415297v-56.138291h56.138291v56.138291zM683.304875 720.612997c0 15.461511-12.535384 28.033021-28.10527 28.03302h-280.510831c-15.497636 0-28.033021-12.535384-28.03302-28.03302v-280.583081c0-15.497636 12.535384-28.033021 28.03302-28.03302h280.510831c15.569886 0 28.105271 12.535384 28.10527 28.03302V720.612997z m0-392.751288c0 15.461511-12.535384 28.033021-28.10527 28.03302h-280.510831c-15.497636 0-28.033021-12.535384-28.03302-28.03302v-280.510831c0-15.569886 12.535384-28.105271 28.03302-28.10527h280.510831c15.569886 0 28.105271 12.535384 28.10527 28.10527v280.510831z m112.168208 308.616101h-56.066041v-56.138291h56.066041V636.47781z m0-112.276582h-56.066041v-56.029916h56.066041v56.029916z m0-112.168207h-56.066041v-56.138292h56.066041v56.138292z m0-112.204333h-56.066041v-56.138291h56.066041v56.138291z m0-112.276582h-56.066041v-56.066041h56.066041v56.066041z m0-112.168207h-56.066041v-56.138291h56.066041v56.138291z"  horiz-adv-x="1024" />
      
      <glyph glyph-name="yinliang" unicode="&#59078;" d="M684.418669 720.402441L431.949765 552.10188h-84.168342c-30.958056 0-56.136311-25.069884-56.136311-56.13631v-224.364625c0-31.030303 25.178255-56.136311 56.136311-56.13631h84.168342l252.468904-168.300561c30.958056 0 56.136311 25.069884 56.13631 56.136311V664.26613c0 31.030303-25.178255 56.136311-56.13631 56.136311z m-252.468904-420.769464c0-15.49709-12.534942-28.032032-28.032031-28.032032h-28.104279c-15.49709 0-28.032032 12.534942-28.032032 28.032032V467.933538a28.032032 28.032032 0 0 0 28.032032 28.032032h28.104279a28.032032 28.032032 0 0 0 28.032031-28.032032v-168.300561z m252.468904-196.332592l-196.332593 122.676262V541.589868l196.332593 122.676262v-560.965745z"  horiz-adv-x="1024" />
      
      <glyph glyph-name="shouyinji" unicode="&#59079;" d="M790.415579 610.287166h58.992168c61.918295 0 112.168207-50.177662 112.168207-112.168207v-392.751288c0-61.918295-50.249912-112.168207-112.168207-112.168207H176.037254c-61.918295 0-112.168207 50.249912-112.168207 112.168207V498.082834c0 62.02667 50.249912 112.168207 112.168207 112.168207h504.341494l-213.498906 118.309461c-13.43851 7.47788-17.954138 23.914768-10.223383 36.847527 7.730756 12.824384 24.926268 17.267763 38.328654 9.789883l295.430466-164.910746z m115.022084-112.204332c0 30.959148-25.070768 56.138291-56.029916 56.138291H176.037254c-30.959148 0-56.029916-25.179143-56.029916-56.138291v-392.751288c0-30.959148 25.070768-56.029916 56.029916-56.029916h673.334368c30.959148 0 56.029916 25.106893 56.029916 56.029916V498.082834h0.036125z m-252.47781-364.646018c-92.949693 0-168.306498 75.356805-168.306498 168.306499 0 92.877443 75.356805 168.306498 168.306498 168.306498 92.985818 0 168.306498-75.429055 168.306499-168.306498 0.036125-92.949693-75.32068-168.306498-168.306499-168.306499z m0 280.510831c-61.918295 0-112.168207-50.249912-112.168207-112.168207 0-61.990545 50.249912-112.276582 112.168207-112.276582 61.990545 0 112.276582 50.249912 112.276582 112.276582 0 61.918295-50.249912 112.168207-112.276582 112.168207z m-280.474705-252.47781H204.17865c-15.461511 0-28.105271 12.535384-28.105271 28.033021 0 15.461511 12.643759 28.105271 28.105271 28.10527h168.306498c15.497636 0 28.033021-12.643759 28.03302-28.10527a28.033021 28.033021 0 0 0-28.03302-28.033021z m0 112.168207H204.17865c-15.461511 0-28.105271 12.535384-28.105271 28.105271 0 15.497636 12.643759 28.033021 28.105271 28.03302h168.306498c15.497636 0 28.033021-12.535384 28.03302-28.03302 0-15.533761-12.571509-28.105271-28.03302-28.105271z m0 112.276582H204.17865c-15.461511 0-28.105271 12.535384-28.105271 28.033021 0 15.497636 12.643759 28.033021 28.105271 28.03302h168.306498c15.497636 0 28.033021-12.535384 28.03302-28.03302a28.033021 28.033021 0 0 0-28.03302-28.033021z"  horiz-adv-x="1024" />
      
      <glyph glyph-name="shouji" unicode="&#59080;" d="M652.309603-64.853454h-280.510831c-62.02667 0-112.168207 50.249912-112.168207 112.276582V720.649122c0 61.990545 50.177662 112.168207 112.168207 112.168207h280.510831c61.990545 0 112.276582-50.177662 112.276582-112.168207v-673.262119c0-61.990545-50.286037-112.240457-112.276582-112.240457z m56.138291 785.502576c0 30.959148-25.070768 56.138291-56.138291 56.138291h-280.510831c-30.959148 0-56.138291-25.179143-56.138291-56.138291v-28.033021H708.411769v28.033021h0.036125z m0-84.135187H315.660481v-364.646017H708.411769V636.513935h0.036125z m0-420.784308H315.660481v-168.306499c0-30.959148 25.179143-56.138291 56.138291-56.138291h280.510831c31.031398 0 56.138291 25.179143 56.138291 56.138291v168.306499z m-196.339519-168.342624c-31.031398 0-56.138291 25.070768-56.138291 56.138292 0 30.959148 25.070768 56.066041 56.138291 56.066041 30.959148 0 56.029916-25.070768 56.029916-56.066041 0-31.031398-25.070768-56.138291-56.029916-56.138292z"  horiz-adv-x="1024" />
      
      <glyph glyph-name="paizhao" unicode="&#59081;" d="M851.575249 664.474705h-84.171312l-28.03302 56.138292c-16.545262 32.657024-25.179143 56.138291-56.138292 56.138291H346.619629c-30.959148 0-41.18253-26.768645-56.138291-56.138291l-28.033021-56.138292h-84.171311C116.322585 664.474705 66.144923 614.224794 66.144923 552.306498v-448.817328c0-61.990545 50.177662-112.276582 112.168208-112.276583h673.262118c61.990545 0 112.276582 50.249912 112.276582 112.276583V552.306498c0 61.918295-50.249912 112.168207-112.276582 112.168207z m56.138291-560.985535c0-31.031398-25.179143-56.138291-56.138291-56.138292H178.313131c-30.959148 0-56.138291 25.070768-56.138292 56.138292V552.306498c0 30.959148 25.179143 56.138291 56.138292 56.138291h112.168207l28.10527 56.029916c19.83264 32.657024 25.106893 56.138291 56.029916 56.138292h280.583081c30.959148 0 36.305652-23.481267 56.029916-56.138292l28.105271-56.029916h112.168207c30.959148 0 56.138291-25.179143 56.138291-56.138291v-448.817328zM514.962252 552.306498c-123.908841 0-224.444789-100.535949-224.444789-224.444789 0-123.908841 100.535949-224.372539 224.444789-224.372539 123.908841 0 224.444789 100.463699 224.44479 224.372539s-100.535949 224.444789-224.44479 224.444789z m0-392.751287c-92.949693 0-168.306498 75.356805-168.306498 168.306498s75.356805 168.306498 168.306498 168.306498c92.949693 0 168.306498-75.356805 168.306498-168.306498s-75.356805-168.306498-168.306498-168.306498z"  horiz-adv-x="1024" />
      
      <glyph glyph-name="candao" unicode="&#59082;" d="M459.981797 327.917875V-36.715279c0-15.460966-12.534942-28.104279-28.032032-28.104279-15.460966 0-28.032032 12.643313-28.032031 28.104279V804.82365c0 15.49709 12.534942 28.032032 28.032031 28.032031h28.032032s168.300561-174.441599 168.300561-504.937806h-168.300561z m0 420.769464v-364.633153h112.272621c-5.454687 176.934138-112.272621 364.633153-112.272621 364.633153z"  horiz-adv-x="1024" />
      
      <glyph glyph-name="luxiangyingpeng" unicode="&#59083;" d="M906.774289 439.849291l-168.306498-112.168207c0 34.0659-15.461511 64.230297-39.412404 84.785437 57.041417 34.3549 95.550695 96.273196 95.550695 167.692373 0 108.447329-87.892189 196.339519-196.411769 196.339518-108.447329 0-196.339519-87.892189-196.339519-196.339518 0-55.05454 22.758767-104.618077 59.245044-140.309603h-102.956326c26.87702 29.875397 43.675157 68.92655 43.675157 112.276582 0 92.985818-75.356805 168.306498-168.306498 168.306498-92.949693 0-168.306498-75.356805-168.306498-168.306498 0-50.791787 22.939392-95.73132 58.450293-126.582093-34.680025-19.037889-58.450293-55.524166-58.450293-97.862696v-224.44479c0-61.918295 50.286037-112.168207 112.168207-112.168207h448.889579c61.918295 0 112.168207 50.249912 112.168207 112.168207v28.105271L906.738164-8.931913c30.959148 0 56.138291 25.106893 56.138291 56.138291v336.649122c0.036125 30.923023-25.143018 55.993791-56.102166 55.993791zM121.343964 552.125873c0 61.918295 50.177662 112.168207 112.168207 112.168207s112.168207-50.249912 112.168207-112.168207c0-61.990545-50.177662-112.276582-112.168207-112.276582s-112.168207 50.286037-112.168207 112.276582z m560.985536-448.889579c0-30.959148-25.070768-56.029916-56.029916-56.029916H177.37388c-30.959148 0-56.029916 25.106893-56.029916 56.029916v224.44479c0 30.959148 25.070768 56.138291 56.029916 56.138291h448.889579c30.959148 0 56.029916-25.179143 56.029916-56.138291v-224.44479z m-84.171312 336.360122c-77.560432 0-140.562478 62.893671-140.562478 140.562478 0 77.668807 63.002046 140.562478 140.562478 140.562478 77.668807 0 140.634728-62.893671 140.634728-140.562478 0.036125-77.668807-62.965921-140.562478-140.634728-140.562478z m308.616101-392.426163l-168.306498 140.201228v84.135187l168.306498 112.276582v-336.612997z"  horiz-adv-x="1024" />
      
      <glyph glyph-name="chazi" unicode="&#59084;" d="M596.135187 608.480914c0-39.484654-23.481267-66.108798-56.029916-78.644182V804.820433c0 15.497636-12.535384 28.033021-28.105271 28.033021-15.497636 0-28.033021-12.535384-28.033021-28.033021v-274.983701c-32.657024 12.535384-56.138291 39.159529-56.138291 78.644182V804.820433c0 15.497636-12.535384 28.033021-28.03302 28.033021-15.497636 0-28.033021-12.535384-28.033021-28.033021v-196.339519c0-67.878925 48.118535-124.450716 112.168207-137.455725V-36.748183c0-15.461511 12.535384-28.105271 28.033021-28.105271 15.569886 0 28.105271 12.643759 28.105271 28.105271V471.025189c63.977422 13.00501 112.168207 69.576801 112.168207 137.455725V804.820433c0 15.497636-12.535384 28.033021-28.033021 28.033021-15.461511 0-28.105271-12.535384-28.10527-28.033021v-196.339519h0.036125z"  horiz-adv-x="1024" />
      
      <glyph glyph-name="wendangwenjian" unicode="&#59085;" d="M852.755353 832.855681H179.516986c-61.988359 0-112.272621-50.248139-112.272622-112.16425V47.453064c0-61.988359 50.248139-112.272621 112.272622-112.272622h673.238367c61.916111 0 112.16425 50.248139 112.16425 112.272622V720.655307c0 61.916111-50.248139 112.200374-112.16425 112.200374zM291.681236 776.719371h448.801496v-252.468904a28.032032 28.032032 0 0 0-28.032032-28.032031H319.713268a28.032032 28.032032 0 0 0-28.032032 28.032031V776.719371z m617.138181-729.302431c0-31.030303-25.106008-56.136311-56.02794-56.136311H179.516986c-31.030303 0-56.136311 25.106008-56.136311 56.136311V720.655307c0 30.958056 25.106008 56.064063 56.136311 56.064064H235.544925v-280.500935c0-30.958056 25.178255-56.136311 56.136311-56.136311h448.801496c31.030303 0 56.136311 25.178255 56.136311 56.136311V776.719371h56.13631c30.958056 0 56.027939-25.069884 56.02794-56.064064v-673.238367zM600.28645 552.354747c-15.460966 0-28.104279 12.534942-28.104279 28.032031V692.551028c0 15.49709 12.643313 28.104279 28.104279 28.104279 15.49709 0 28.032032-12.643313 28.032032-28.104279v-112.16425c0-15.49709-12.534942-28.032032-28.032032-28.032031z"  horiz-adv-x="1024" />
      
      <glyph glyph-name="luxiang" unicode="&#59086;" d="M849.407747 75.383899H176.145629c-61.990545 0-112.276582 50.249912-112.276582 112.276582V580.339519c0 61.990545 50.249912 112.276582 112.276582 112.276582h673.262118c61.918295 0 112.168207-50.249912 112.168207-112.276582v-392.679038c0-62.02667-50.249912-112.276582-112.168207-112.276582z m56.138291 504.95562c0 31.031398-25.179143 56.138291-56.138291 56.138291H176.145629c-31.031398 0-56.138291-25.070768-56.138291-56.138291v-392.679038c0-31.031398 25.070768-56.138291 56.138291-56.138291h673.262118c30.959148 0 56.138291 25.070768 56.138291 56.138291V580.339519z m-84.171311-336.649122c-15.569886 0-28.105271 12.535384-28.105271 28.105271 0 15.461511 12.535384 28.033021 28.105271 28.03302 15.497636 0 28.033021-12.535384 28.03302-28.03302 0-15.533761-12.535384-28.105271-28.03302-28.105271z m0 112.276582c-15.569886 0-28.105271 12.535384-28.105271 28.033021 0 15.497636 12.535384 28.033021 28.105271 28.033021 15.497636 0 28.033021-12.535384 28.03302-28.033021a28.033021 28.033021 0 0 0-28.03302-28.033021z m-112.276583-168.306498H316.346857c-15.497636 0-28.033021 12.535384-28.033021 28.033021V552.306498a28.033021 28.033021 0 0 0 28.033021 28.033021h392.751287c15.497636 0 28.105271-12.535384 28.105271-28.033021v-336.649121c0.036125-15.461511-12.607634-27.996896-28.105271-27.996896z m-27.996895 308.507726c0 15.461511-12.535384 28.105271-28.033021 28.105271h-280.58308c-15.497636 0-28.033021-12.643759-28.033021-28.105271v-224.372539c0-15.569886 12.535384-28.105271 28.033021-28.105271h280.58308c15.461511 0 28.033021 12.535384 28.033021 28.105271v224.372539zM204.17865 243.690397c-15.461511 0-28.033021 12.535384-28.033021 28.105271a28.033021 28.033021 0 0 0 28.033021 28.03302c15.497636 0 28.033021-12.535384 28.03302-28.03302-0.036125-15.533761-12.571509-28.105271-28.03302-28.105271z m0 112.276582a28.033021 28.033021 0 0 0-28.033021 28.033021c0 15.497636 12.535384 28.033021 28.033021 28.033021 15.497636 0 28.033021-12.535384 28.03302-28.033021-0.036125-15.461511-12.571509-28.033021-28.03302-28.033021z"  horiz-adv-x="1024" />
      
      <glyph glyph-name="pingban" unicode="&#59087;" d="M722.464404-64.853454H301.643971c-61.990545 0-112.276582 50.249912-112.276582 112.276582V720.649122c0 61.990545 50.249912 112.168207 112.276582 112.168207h420.784308c61.918295 0 112.168207-50.177662 112.168207-112.168207v-673.262119c0.036125-61.990545-50.213787-112.240457-112.132082-112.240457zM778.49432 720.649122c0 30.959148-25.106893 56.138291-56.029916 56.138291H301.643971c-31.031398 0-56.138291-25.179143-56.138291-56.138291v-28.033021H778.49432v28.033021z m0-84.135187H245.541805v-448.817329H778.49432V636.513935z m0-504.95562H245.541805v-84.171312c0-30.959148 25.070768-56.138291 56.138291-56.138291h420.784308c30.959148 0 56.029916 25.179143 56.029916 56.138291v84.171312z m-266.42207-112.276582c-23.300642 0-42.085656 18.857264-42.085656 42.157906 0 23.228392 18.785014 42.085656 42.085656 42.085656 23.228392 0 42.085656-18.857264 42.085656-42.085656-0.036125-23.300642-18.893389-42.157906-42.085656-42.157906z"  horiz-adv-x="1024" />
      
      <glyph glyph-name="youxi" unicode="&#59088;" d="M764.513935-65.720454H259.59444c-61.990545 0-112.276582 50.249912-112.276582 112.276582V719.818246c0 61.990545 50.249912 112.168207 112.276582 112.168207h504.95562c61.990545 0 112.168207-50.177662 112.168207-112.168207v-673.262118c0-62.02667-50.177662-112.276582-112.204332-112.276582z m56.138291 785.5387c0 30.959148-25.179143 56.138291-56.138291 56.138291H259.59444c-30.959148 0-56.138291-25.179143-56.138291-56.138291v-673.262118c0-30.959148 25.179143-56.138291 56.138291-56.138291h504.95562c30.959148 0 56.138291 25.179143 56.138291 56.138291V719.818246h-0.036125z m-84.135187-561.093911c-15.569886 0-28.105271 12.535384-28.10527 28.105271 0 15.461511 12.535384 28.033021 28.10527 28.03302a28.033021 28.033021 0 0 0 28.033021-28.03302c-0.036125-15.569886-12.571509-28.105271-28.033021-28.105271z m-28.141395 112.276582H315.696606c-31.031398 0-56.138291 25.070768-56.138291 56.029916V663.679955c0 31.031398 25.070768 56.138291 56.138291 56.138291h392.679038c31.031398 0 56.138291-25.070768 56.138291-56.138291v-336.649122c0-30.959148-25.070768-56.029916-56.138291-56.029916z m0 364.646017c0 15.497636-12.535384 28.033021-28.033021 28.033021H343.729627c-15.497636 0-28.033021-12.535384-28.033021-28.033021v-280.51083c0-15.569886 12.535384-28.105271 28.033021-28.105271h336.612996c15.497636 0 28.033021 12.535384 28.033021 28.105271V635.646934zM287.591336 158.724335h28.10527v28.105271a28.033021 28.033021 0 0 0 28.033021 28.03302c15.497636 0 28.033021-12.535384 28.03302-28.03302v-28.105271h28.105271a28.033021 28.033021 0 0 0 0-56.066041h-28.105271v-28.105271a28.033021 28.033021 0 0 0-28.03302-28.03302c-15.497636 0-28.033021 12.535384-28.033021 28.03302v28.105271h-28.10527c-15.497636 0-28.033021 12.535384-28.033021 28.03302 0.036125 15.497636 12.571509 28.033021 28.033021 28.033021z m280.58308-56.066041c15.461511 0 28.033021-12.643759 28.033021-28.105271a28.033021 28.033021 0 0 0-28.033021-28.03302c-15.569886 0-28.105271 12.535384-28.10527 28.03302 0 15.497636 12.535384 28.105271 28.10527 28.105271z m0 84.171312a28.033021 28.033021 0 0 0 28.033021 28.03302c15.497636 0 28.033021-12.535384 28.03302-28.03302 0-15.569886-12.535384-28.105271-28.03302-28.105271-15.461511 0-28.033021 12.535384-28.033021 28.105271z m140.201228-84.171312c15.461511 0 28.105271-12.643759 28.10527-28.105271s-12.643759-28.033021-28.10527-28.03302c-15.497636 0-28.033021 12.535384-28.033021 28.03302 0.036125 15.497636 12.571509 28.105271 28.033021 28.105271z"  horiz-adv-x="1024" />
      
      <glyph glyph-name="yule" unicode="&#59089;" d="M792.546955 132.244691H231.453045c-92.985818 0-168.306498 75.356805-168.306499 168.306498v168.306498c0 92.985818 75.356805 168.306498 168.306499 168.306498h561.09391c92.949693 0 168.306498-75.356805 168.306499-168.306498v-168.306498c0-92.949693-75.356805-168.306498-168.306499-168.306498z m112.168208 336.649121c0 62.02667-50.177662 112.168207-112.168208 112.168207H231.453045c-61.918295 0-112.168207-50.177662-112.168208-112.168207v-168.306498c0-61.990545 50.249912-112.276582 112.168208-112.276582h561.09391c61.990545 0 112.168207 50.286037 112.168208 112.276582v168.306498z m-98.115572-140.309603c-23.300642 0-42.085656 18.857264-42.085656 42.085656 0 23.228392 18.785014 42.085656 42.085656 42.085656 23.228392 0 42.085656-18.857264 42.085656-42.085656 0-23.228392-18.857264-42.085656-42.085656-42.085656z m-84.171312 112.276583c-23.300642 0-42.085656 18.785014-42.085656 42.085655 0 23.228392 18.785014 42.085656 42.085656 42.085656 23.228392 0 42.085656-18.857264 42.085656-42.085656 0-23.300642-18.857264-42.085656-42.085656-42.085655z m13.980385-154.362238c0-23.228392-18.857264-42.085656-42.085655-42.085656-23.228392 0-42.085656 18.857264-42.085656 42.085656 0 23.228392 18.857264 42.085656 42.085656 42.085655 23.228392 0 42.085656-18.857264 42.085655-42.085655z m-126.220842 70.190926c-23.228392 0-42.085656 18.785014-42.085656 42.085656 0 23.228392 18.857264 42.085656 42.085656 42.085656 23.228392 0 42.085656-18.857264 42.085656-42.085656-0.036125-23.300642-18.893389-42.085656-42.085656-42.085656z m-182.286884 0h-84.171311v-84.171312c0-15.569886-12.643759-28.105271-28.105271-28.10527s-28.033021 12.535384-28.03302 28.10527v84.171312h-84.171312c-15.461511 0-28.105271 12.535384-28.105271 28.033021 0 15.497636 12.643759 28.033021 28.105271 28.03302h84.171312v84.171312c0 15.461511 12.535384 28.105271 28.03302 28.10527s28.105271-12.643759 28.105271-28.10527v-84.171312h84.171311c15.497636 0 28.033021-12.535384 28.033021-28.03302-0.036125-15.461511-12.571509-28.033021-28.033021-28.033021z"  horiz-adv-x="1024" />
      
      <glyph glyph-name="canshao" unicode="&#59090;" d="M539.52727 386.528752c0.07225-0.903126 0.541875-1.589501 0.541876-2.492627V-36.748183c0-15.461511-12.535384-28.105271-28.105271-28.105271-15.497636 0-28.033021 12.643759-28.033021 28.105271V384.036125c0 0.903126 0.4335 1.589501 0.541876 2.492627-95.37007 15.317011-168.848374 108.700205-168.848374 221.952162 0 123.944966 87.892189 224.372539 196.339519 224.37254 108.519579 0 196.447894-100.427574 196.447894-224.37254-0.036125-113.251958-73.514429-206.671276-168.884499-221.952162zM511.963875 776.787413c-77.379807 0-140.201228-75.356805-140.201228-168.306499 0-92.949693 62.821421-168.306498 140.201228-168.306498 77.488182 0 140.273478 75.356805 140.273478 168.306498 0 92.949693-62.785296 168.306498-140.273478 168.306499z"  horiz-adv-x="1024" />
      
      <glyph glyph-name="shoujichuanshu" unicode="&#59091;" d="M540.033021 832.853454v-112.168207h140.309602c61.990545 0 112.168207-50.249912 112.168207-112.276583V47.423128c0-61.990545-50.177662-112.276582-112.168207-112.276582H343.693502c-61.990545 0-112.168207 50.249912-112.168207 112.276582V608.408664c0 62.02667 50.177662 112.276582 112.168207 112.276583h140.273477V776.715163h-56.138291c-15.461511 0-28.033021 12.535384-28.03302 28.10527a28.033021 28.033021 0 0 0 28.03302 28.033021h112.204333z m196.411768-224.44479c0 31.031398-25.179143 56.138291-56.138291 56.138291H343.693502c-30.959148 0-56.138291-25.070768-56.138291-56.138291V47.423128c0-31.031398 25.179143-56.138291 56.138291-56.138291h336.649121c30.959148 0 56.138291 25.106893 56.138291 56.138291V608.408664h-0.036125z m-224.444789-168.306498c-15.497636 0-28.033021 12.535384-28.033021 28.105271V580.375644c0 15.497636 12.535384 28.033021 28.033021 28.03302a28.033021 28.033021 0 0 0 28.033021-28.03302v-112.168207c0-15.569886-12.535384-28.105271-28.033021-28.105271z"  horiz-adv-x="1024" />
      
      <glyph glyph-name="yintian" unicode="&#59092;" d="M289.108587 48.86813c-125.064842 6.863755-224.372539 104.256826-224.37254 223.722288 0 101.222324 71.274677 186.802512 169.209624 214.763283 9.428632 130.772596 118.309462 234.054046 251.574685 234.054046 99.379948 0 185.140761-57.547167 226.214915-140.995978 139.767727-8.344881 250.599309-123.908841 250.599309-265.735695 0-147.245608-133.337473-266.530445-280.510831-266.530445-4.660128 0-392.715163 0.722501-392.715162 0.722501z m-168.342624 223.722288c-1.083751-150.966486 168.306498-168.306498 168.306499-168.306498h392.751287c100.969449 0 230.333169 100.608199 224.44479 224.44479-4.443378 92.082692-98.404572 202.047273-237.449799 195.978268-22.867142 81.85931-87.097439 140.670853-183.334509 140.670853-122.066464 0-196.411769-108.266704-196.411769-224.444789-92.841318-5.165879-167.656248-83.195936-168.306499-168.342624z"  horiz-adv-x="1024" />
      
      <glyph glyph-name="shishangfeng" unicode="&#59093;" d="M877.007267 437.320539L259.775065 381.182248c-30.959148 0-56.066041 25.179143-56.066041 56.138291V745.900515c0 30.959148 25.106893 56.029916 56.066041 56.029916l617.232202-56.029916c30.959148 0 56.029916-25.179143 56.029916-56.138291v-196.447894c0-30.923023-25.070768-55.993791-56.029916-55.993791zM484.219855 726.248501l-196.339519 19.652014c-26.262894 0-28.105271-5.346504-28.105271-28.105271v-252.477809c0-22.686517 1.878501-28.033021 28.105271-28.033021l196.339519 19.652014V726.248501z m56.138291-263.676568l168.306498 16.798137V703.850984l-168.306498 16.798138v-258.077189z m336.649121 201.071897c0 22.686517-1.878501 26.154519-28.10527 26.154519l-84.171312 8.344881v-213.137656l84.171312 8.344881c26.262894 0 28.105271 3.468003 28.10527 26.262894V663.64383zM119.573838-39.60206c-15.569886 0-28.105271 12.535384-28.105271 28.03302V773.933536c0 15.461511 12.535384 28.033021 28.105271 28.03302 15.497636 0 28.033021-12.535384 28.03302-28.03302v-785.538701c0-15.461511-12.571509-27.996896-28.03302-27.996895z"  horiz-adv-x="1024" />
      
      <glyph glyph-name="rengouxiangqing" unicode="&#59094;" d="M624.637832-64.058703l-112.168207 84.171311-112.168207-84.171311-112.276582 84.171311-115.92521-84.171311h-52.381288V721.371622c0 62.02667 50.249912 112.276582 112.276582 112.276582H792.944331c61.990545 0 112.276582-50.249912 112.276582-112.276582v-785.430325h-52.417413l-115.92521 84.171311-112.240458-84.171311z m224.44479 785.430325c0 31.031398-25.070768 56.138291-56.138291 56.138291H231.958795c-31.067523 0-56.138291-25.070768-56.138291-56.138291v-730.98991l112.168207 85.760813 112.276582-89.409441 112.168207 89.409441 112.168207-89.409441 112.276583 89.409441 112.168207-84.857688V721.371622h0.036125z m-140.273478-448.817329H316.130107c-15.569886 0-28.105271 12.535384-28.105271 28.033021 0 15.461511 12.535384 28.105271 28.105271 28.10527h392.679037c15.461511 0 28.105271-12.643759 28.105271-28.10527 0-15.497636-12.643759-28.033021-28.105271-28.033021z m0 168.956749H316.130107c-15.569886 0-28.105271 12.535384-28.105271 28.033021 0 15.569886 12.535384 28.105271 28.105271 28.10527h392.679037c15.461511 0 28.105271-12.535384 28.105271-28.10527 0-15.497636-12.643759-28.033021-28.105271-28.033021z m0 167.692373H316.130107c-15.569886 0-28.105271 12.535384-28.105271 28.03302 0 15.497636 12.535384 28.105271 28.105271 28.105271h392.679037c15.461511 0 28.105271-12.643759 28.105271-28.105271 0-15.497636-12.643759-28.033021-28.105271-28.03302z"  horiz-adv-x="1024" />
      
      <glyph glyph-name="qianbao" unicode="&#59095;" d="M819.4601 482.440697v-430.935441c0-63.435546-49.997037-114.841459-111.554082-114.841459H317.358357c-61.66542 0-111.554082 51.405913-111.554081 114.841459V511.160093h0.36125c-0.4335 19.941015-0.794751 30.417272 13.691385 45.300783l254.970437 262.701193c20.12164 20.62739 52.742539 20.62739 72.864178 0l255.042687-262.701193c20.085515-20.663515 16.725887-40.74903 16.725887-74.020179z m-52.598038 15.280886c0 20.19389-8.706131 29.622522-18.785014 40.02653l-218.664785 225.058914a25.222493 25.222493 0 0 1-36.377902 0l-218.592535-225.058914c-10.042757-10.404008-12.643759-21.602766-12.643759-40.02653l-0.252875-446.252452c0-31.681648 25.612644-58.811543 56.391166-58.811543h392.751288c30.778523 0 56.138291 24.384393 56.138291 56.138291V497.721583h0.036125zM512.614125 367.490863c-61.66542 0-111.554082 51.514288-111.554081 114.949834 0 63.435546 49.924787 114.949834 111.554081 114.949834 61.66542 0 111.554082-51.514288 111.554082-114.949834 0-63.435546-49.888662-114.949834-111.554082-114.949834z m0 172.424751c-30.778523 0-55.777041-25.721019-55.77704-57.474917s24.998518-57.474917 55.77704-57.474917 55.777041 25.721019 55.777041 57.474917-24.998518 57.474917-55.777041 57.474917z"  horiz-adv-x="1024" />
      
      <glyph glyph-name="xiaoyu" unicode="&#59096;" d="M709.531645 692.543851c-41.18253 83.448811-126.871093 141.104353-226.323291 141.104353-133.192973 0-242.073802-103.281451-251.502434-234.162421-97.934947-27.924645-169.281874-113.432583-169.281874-214.763282 0-119.465462 99.271573-217.508784 224.444789-224.37254h420.784308c137.527976 0 252.47781 119.284837 252.47781 266.458195 0 154.109363-110.831581 257.463064-250.599308 265.735695z m-29.875397-476.127849H314.901856c-140.562478 1.589501-196.339519 109.061455-196.339519 168.306499 0 76.512806 67.951175 162.454244 168.306498 168.306498-0.867001 114.082834 69.685176 224.480914 196.339519 224.480914 96.16482 0 159.961617-58.883793 182.901009-140.562478 129.72497 5.960629 237.883299-85.507938 237.883299-196.086643 0-117.767586-84.785437-224.444789-224.336414-224.44479zM371.040147 104.247795c15.461511 0 28.033021-12.535384 28.03302-28.10527 0-15.497636-12.535384-28.033021-28.03302-28.033021-15.497636 0-28.033021 12.535384-28.033021 28.033021 0 15.569886 12.535384 28.105271 28.033021 28.10527zM427.178438-8.028787a28.033021 28.033021 0 0 0 0-56.066041c-15.569886 0-28.105271 12.535384-28.105271 28.03302 0 15.497636 12.535384 28.033021 28.105271 28.033021zM539.346645 104.247795c15.461511 0 28.033021-12.535384 28.033021-28.10527 0-15.497636-12.535384-28.033021-28.033021-28.033021a28.033021 28.033021 0 0 0-28.033021 28.033021c0.036125 15.569886 12.571509 28.105271 28.033021 28.10527zM595.484936-8.028787a28.033021 28.033021 0 0 0 0-56.066041c-15.461511 0-28.105271 12.535384-28.10527 28.03302 0 15.497636 12.643759 28.033021 28.10527 28.033021zM707.653143 104.247795c15.461511 0 28.033021-12.535384 28.033021-28.10527 0-15.497636-12.535384-28.033021-28.033021-28.033021-15.497636 0-28.033021 12.535384-28.03302 28.033021 0.036125 15.569886 12.571509 28.105271 28.03302 28.10527z"  horiz-adv-x="1024" />
      
      <glyph glyph-name="gedanbiaoqian" unicode="&#59097;" d="M915.986171 339.421717L545.524025-29.848303c-45.445283-45.373033-119.212587-45.373033-164.657871 0l-288.133211 287.26621c-45.445283 45.264658-45.445283 118.779087 0 164.152121L463.231214 790.840048c28.285896 29.622522 33.70465 42.627531 63.327172 42.627531h376.3144c29.730897 0 53.826289-24.023143 53.82629-53.645664v-375.1584c0-29.550272-16.870387-41.39928-40.712905-65.241798zM133.915473 298.419812l288.133211-287.26621c22.686517-22.686517 59.606294-22.686517 82.29281 0l40.74903 40.640655-369.55902 370.209271-41.616031-41.471531c-22.686517-22.686517-22.686517-59.425669 0-82.112185zM902.872786 753.017145c0 14.847386-11.993509 26.768645-26.877019 26.768645h-322.488112c-14.847386 0-35.944401-16.798137-49.202286-29.983772l-287.69971-286.796585L586.67043 93.265787l288.060961 287.26621c14.486136 14.413886 28.105271 36.125026 28.10527 50.972413v321.512735h0.036125z m-295.611091-269.890072c-45.445283 45.264658-45.445283 118.742962 0 164.115995 45.445283 45.264658 119.212587 45.264658 164.65787 0 45.445283-45.373033 45.445283-118.851337 0-164.115995-45.445283-45.373033-119.176462-45.373033-164.65787 0z m123.47534 123.11409c-22.686517 22.614267-59.606294 22.614267-82.29281 0-22.758767-22.686517-22.758767-59.425669 0-82.112185 22.686517-22.686517 59.606294-22.686517 82.29281 0a57.847005 57.847005 0 0 1 0 82.112185z"  horiz-adv-x="1024" />
      
      <glyph glyph-name="zhuanjibiaoqian" unicode="&#59098;" d="M876.031892 611.659917V807.999436c0 15.461511-6.574755 24.095393-20.988641 29.803146-11.126508 4.443378-21.964016 1.770126-35.041275-1.697876L90.601566 611.659917V-5.572285c0-30.959148 25.070768-56.029916 56.029916-56.029916H876.031892c30.959148 0 56.138291 25.070768 56.138291 56.029916V555.521626c0 30.959148-25.179143 56.138291-56.138291 56.138291z m-56.029916 168.306498v-168.306498H272.88845l547.113526 168.306498z m56.029916-533.06089v-28.033021h-112.168208v28.033021 28.10527h112.168208v-28.10527z m0 84.243561h-140.201228c-15.569886 0-28.105271-12.643759-28.105271-28.10527v-112.204332c0-15.497636 12.535384-28.105271 28.105271-28.105271h140.201228v-140.201228c0-15.461511-12.535384-28.105271-28.033021-28.10527H174.736753c-15.461511 0-28.105271 12.643759-28.105271 28.10527V555.521626h701.367389c15.497636 0 28.033021-12.535384 28.033021-28.033021v-196.339519z"  horiz-adv-x="1024" />
      
      <glyph glyph-name="xiazaigedan" unicode="&#59099;" d="M852.755353-62.977246H179.516986c-61.988359 0-112.272621 50.248139-112.272622 112.16425V722.461495c0 62.024482 50.248139 112.272621 112.272622 112.272621h673.238367c61.916111 0 112.16425-50.248139 112.16425-112.272621v-673.238367c0-61.916111-50.248139-112.200374-112.16425-112.200374z m56.064064 785.438741c0 31.030303-25.069884 56.136311-56.02794 56.136311H179.516986c-31.030303 0-56.136311-25.069884-56.136311-56.136311v-673.238367c0-30.958056 25.069884-56.136311 56.136311-56.136311h673.238367c30.958056 0 56.027939 25.178255 56.02794 56.136311V722.461495h0.036124z m-140.232406-673.238367H263.685328c-15.460966 0-28.104279 12.534942-28.104279 28.032031 0 15.569337 12.643313 28.104279 28.104279 28.104279h504.937807c15.49709 0 28.032032-12.534942 28.032031-28.104279a28.068155 28.068155 0 0 0-28.068155-28.032031z m-231.553251 121.050693c-5.888172-5.960419-13.690902-8.452958-21.349137-8.019473-7.730483-0.433485-15.49709 2.059054-21.349138 8.019473l-138.606836 167.794828c-11.017744 11.017744-11.017744 28.899002 0 39.95287 10.945497 11.017744 28.826754 11.017744 39.772251 0l92.512929-111.983631V694.429463c0 15.460966 12.643313 28.032032 28.104279 28.032032 15.49709 0 28.032032-12.534942 28.032031-28.032032v-427.343987L635.796098 377.985395a28.147628 28.147628 0 0 0 39.844499 0c11.017744-11.017744 11.017744-28.899002 0-39.95287l-138.606837-167.758704z"  horiz-adv-x="1024" />
      
      <glyph glyph-name="gouwuche01" unicode="&#59100;" d="M289.144712 218.330629c-31.067523 0-56.138291 25.106893-56.138291 56.029916l645.229097 56.138291s84.171312 340.189374 84.171312 364.754392c0 15.497636-12.643759 28.033021-28.105271 28.033021H233.006421V779.316165h28.03302c15.497636 0 28.105271 12.643759 28.105271 28.10527s-12.643759 28.033021-28.105271 28.033021H92.732943c-15.497636 0-28.033021-12.535384-28.033021-28.033021 0-15.497636 12.535384-28.105271 28.033021-28.10527h84.171312v-504.95562c0-61.918295 50.249912-112.168207 112.276582-112.168207h645.156847c0.903126 0 0 27.852395 0 56.138291H289.144712zM233.006421 667.147957h673.262118l-71.708178-286.90496L233.006421 330.498836V667.147957zM681.823749 162.192338c-61.918295 0-112.168207-50.249912-112.168207-112.168208 0-62.02667 50.249912-112.276582 112.168207-112.276582 61.990545 0 112.276582 50.249912 112.276583 112.276582 0 61.918295-50.286037 112.168207-112.276583 112.168208z m0-168.306499c-30.959148 0-56.066041 25.106893-56.066041 56.138291 0 30.959148 25.106893 56.029916 56.066041 56.029916 31.031398 0 56.138291-25.070768 56.138291-56.029916 0-31.067523-25.106893-56.138291-56.138291-56.138291zM345.174628 162.192338c-61.918295 0-112.168207-50.249912-112.168207-112.168208 0-62.02667 50.249912-112.276582 112.168207-112.276582 61.990545 0 112.276582 50.249912 112.276582 112.276582 0 61.918295-50.249912 112.168207-112.276582 112.168208z m0-168.306499c-30.959148 0-56.029916 25.106893-56.029916 56.138291 0 30.959148 25.070768 56.029916 56.029916 56.029916 31.031398 0 56.138291-25.070768 56.138291-56.029916 0-31.067523-25.070768-56.138291-56.138291-56.138291z"  horiz-adv-x="1024" />
      
      <glyph glyph-name="shangdian" unicode="&#59101;" d="M960.130953 554.97975L796.195583 835.454456H225.492415L62.424046 554.97975v-112.276582c0-29.875397 10.765258-62.460171 28.10527-84.171312l0.794751-308.507726c0-62.02667 51.875538-112.276582 115.744585-112.276582h607.51457c63.869047 0 117.514711 50.249912 117.514711 112.276582v308.507726c19.579764 23.120017 28.033021 46.890284 28.03302 84.171312V554.97975z m-84.135186-504.95562c0-30.959148-29.441897-56.138291-61.37642-56.138291H207.068652c-31.934523 0-60.401044 25.179143-60.401045 56.138291v56.029916h729.292035v-56.029916z m0 112.168208H146.667607l-0.07225 168.306498h55.162916c30.056022 0 77.849432 26.87702 98.043322 67.951175 22.686517-39.954279 65.133423-67.951175 105.521202-67.951175 42.772031 0 89.842941 25.432019 105.521202 62.17117 15.750512-35.836026 61.846045-62.171171 103.642701-62.17117 41.54378 0 84.532562 30.525647 106.315953 72.250053 25.432019-42.085656 45.987159-72.250053 99.090948-72.250053 8.272631 0 48.913286-1.336626 56.138291 0v-168.306498z m27.996895 280.51083c-0.36125-38.689903-45.011783-56.029916-84.171312-56.029916-45.120158 0-85.652438 27.31052-85.652437 56.029916h-26.51577c0-28.285896-50.249912-56.029916-93.491568-56.029916-41.47153 0-89.770691 28.647146-89.770691 56.029916h-27.129895c0-28.285896-49.093911-56.029916-90.637691-56.029916-43.241657 0-92.624568 19.941015-92.624568 56.029916h-26.515769c0-28.213646-43.313907-56.933042-84.966063-56.933042-42.157906 0-83.990687 18.243138-83.990686 56.933042v56.138291h785.430325v-56.138291zM119.609963 554.97975l130.772595 224.37254h520.959007l133.445848-224.37254H119.609963z"  horiz-adv-x="1024" />
      
      <glyph glyph-name="biaozhiqu" unicode="&#59102;" d="M805.407465 632.756932h-168.306498V688.895223c0 30.959148-25.070768 56.029916-56.138291 56.029916H328.484866v28.105271c0 30.959148-25.070768 56.029916-56.029916 56.029916H216.316658c-30.959148 0-56.138291-25.106893-56.138291-56.029916v-785.5387c0-30.959148 25.179143-56.138291 56.138291-56.138292h56.138292c30.959148 0 56.029916 25.179143 56.029916 56.138292V239.96952h252.47781v-28.033021c0-31.031398 26.407394-56.138291 56.138291-56.138291h168.306498c30.959148 0 56.138291 25.070768 56.138291 56.138291V576.618641c0 30.959148-25.179143 56.138291-56.138291 56.138291zM272.45495 15.52473c0-15.497636-12.535384-28.033021-28.105271-28.03302-15.497636 0-28.033021 12.535384-28.033021 28.03302V744.925139c0 15.461511 12.535384 28.105271 28.033021 28.105271 15.569886 0 28.105271-12.643759 28.105271-28.105271v-729.400409z m308.507726 308.616101c0-15.497636-12.535384-28.033021-28.033021-28.03302H328.484866V688.859098h224.444789c15.461511 0 28.033021-12.643759 28.033021-28.10527v-336.612997z m224.444789-84.135186c0-15.497636-12.535384-28.033021-28.033021-28.033021h-140.309602V576.618641h140.309602a28.033021 28.033021 0 0 0 28.033021-28.03302v-308.579976z"  horiz-adv-x="1024" />
      
      <glyph glyph-name="xiazaibendi" unicode="&#59103;" d="M819.893601-64.347703H202.661398c-61.918295 0-112.168207 50.177662-112.168207 112.168207V721.082622c0 61.990545 50.249912 112.168207 112.168207 112.168207h617.232203c61.990545 0 112.168207-50.177662 112.168207-112.168207v-673.262118c0-61.990545-50.177662-112.168207-112.168207-112.168207zM876.031892 721.082622c0 30.959148-25.179143 56.138291-56.138291 56.138291H202.661398c-30.959148 0-56.029916-25.179143-56.029916-56.138291v-561.093911H876.031892V721.082622z m0-617.123827H146.631482v-56.138291c0-30.959148 25.106893-56.138291 56.029916-56.138291h617.232203c30.959148 0 56.138291 25.179143 56.138291 56.138291v56.138291zM390.728286 460.693431l92.516193-111.915332v344.271502c0 15.497636 12.535384 28.033021 28.03302 28.033021 15.497636 0 28.105271-12.535384 28.105271-28.033021v-343.223876l91.613067 110.831581c10.945883 11.018133 28.827771 11.018133 39.773654 0 11.018133-11.018133 11.018133-28.900021 0-39.954279L532.19389 252.974529c-5.888379-5.852254-13.619135-8.344881-21.349891-7.911381-7.658506-0.4335-15.497636 2.059127-21.27764 7.911381l-138.683977 167.764623c-11.018133 11.018133-11.018133 28.900021 0 39.954279a28.148621 28.148621 0 0 0 39.845904 0z"  horiz-adv-x="1024" />
      
      <glyph glyph-name="xiazaifangshi" unicode="&#59104;" d="M904.787413 468.062937c-15.497636 0-28.033021 12.535384-28.033021 28.03302V692.543851H147.353983v-196.411769a28.033021 28.033021 0 0 0-28.033021-28.03302c-15.461511 0-28.105271 12.535384-28.10527 28.03302V720.540746c0 15.461511 12.643759 28.033021 28.10527 28.033021h785.430326a28.033021 28.033021 0 0 0 28.03302-28.033021v-224.444789c0-15.461511-12.535384-28.033021-27.996895-28.03302z m-513.336626-232.789671l92.516192-112.168207V524.128978c0 15.461511 12.535384 28.105271 28.033021 28.10527 15.569886 0 28.105271-12.643759 28.105271-28.10527v-399.976293l91.649192 111.120581a28.148621 28.148621 0 0 0 39.845904 0c10.945883-11.126508 10.945883-29.008396 0-40.026529l-138.683977-168.053623c-5.888379-5.852254-13.619135-8.453256-21.34989-8.019756-7.658506-0.4335-15.389261 2.131377-21.277641 8.019756l-138.683976 168.053623c-10.945883 11.018133-10.945883 28.900021 0 40.026529a28.148621 28.148621 0 0 0 39.845904 0z"  horiz-adv-x="1024" />
      
      <glyph glyph-name="shangchuanfangshi" unicode="&#59105;" d="M900.344034 23.363861H114.913709a28.033021 28.033021 0 0 0-28.03302 28.03302v224.44479c0 15.497636 12.535384 28.033021 28.03302 28.03302a28.033021 28.033021 0 0 0 28.033021-28.03302v-196.411769h729.400409v196.411769c0 15.497636 12.535384 28.033021 28.03302 28.03302s28.105271-12.535384 28.105271-28.03302v-224.44479a28.083596 28.083596 0 0 0-28.141396-28.03302zM628.21421 536.664362l-92.516193 112.168207v-401.023919c0-15.569886-12.535384-28.105271-28.03302-28.10527-15.569886 0-28.105271 12.535384-28.105271 28.10527V647.748818l-91.613067-111.120581a28.148621 28.148621 0 0 0-39.845904 0c-10.945883 11.018133-10.945883 29.008396 0 40.026529l138.683977 168.053623c5.852254 5.888379 13.619135 8.453256 21.34989 8.019756 7.658506 0.4335 15.389261-2.131377 21.277641-8.019756l138.683976-168.053623c10.945883-11.018133 10.945883-29.008396 0-40.026529a28.159458 28.159458 0 0 0-39.882029 0.036125z"  horiz-adv-x="1024" />
      
      <glyph glyph-name="shangchuancunpan" unicode="&#59106;" d="M821.085726-64.347703H203.853524c-61.918295 0-112.168207 50.177662-112.168207 112.168207V721.082622c0 61.990545 50.249912 112.168207 112.168207 112.168207h617.232202c61.918295 0 112.168207-50.177662 112.168208-112.168207v-673.262118c0-61.990545-50.249912-112.168207-112.168208-112.168207zM877.115642 721.082622c0 30.959148-25.070768 56.138291-56.029916 56.138291H203.853524c-30.959148 0-56.029916-25.179143-56.029916-56.138291v-56.138291H877.115642V721.082622z m0-112.168207H147.823608v-561.093911c0-30.959148 25.070768-56.138291 56.029916-56.138291h617.232202c30.959148 0 56.029916 25.179143 56.029916 56.138291V608.914415z m-244.096803-300.704721l-92.516193 111.987583v-344.379878a28.033021 28.033021 0 0 0-28.033021-28.03302c-15.497636 0-28.033021 12.535384-28.03302 28.03302V419.149651l-91.721442-110.939957a27.996896 27.996896 0 0 0-39.773654 0c-11.018133 11.018133-11.018133 28.900021 0 39.95428l138.611726 167.764623c5.888379 5.852254 13.691385 8.344881 21.349891 8.019756 7.658506 0.36125 15.497636-2.131377 21.34989-8.019756l138.611727-167.764623c11.018133-11.018133 11.018133-28.900021 0-39.95428a28.148621 28.148621 0 0 0-39.845904 0z"  horiz-adv-x="1024" />
      
      <glyph glyph-name="shangchuangedan" unicode="&#59107;" d="M851.141748-63.227828H177.80738c-61.918295 0-112.168207 50.249912-112.168207 112.168208V722.238623c0 62.02667 50.249912 112.276582 112.168207 112.276582h673.370493c61.918295 0 112.168207-50.249912 112.168208-112.276582v-673.262118c0-61.918295-50.286037-112.204332-112.204333-112.204333zM907.207789 722.238623c0 31.031398-25.070768 56.138291-56.029916 56.138291H177.80738c-30.959148 0-56.029916-25.070768-56.029916-56.138291v-673.262118c0-30.959148 25.070768-56.029916 56.029916-56.029916h673.370493c30.959148 0 56.029916 25.070768 56.029916 56.029916V722.238623z m-140.309602-56.066041H261.942567c-15.497636 0-28.033021 12.535384-28.033021 28.03302a28.033021 28.033021 0 0 0 28.033021 28.033021h504.95562c15.569886 0 28.105271-12.535384 28.10527-28.033021 0-15.461511-12.535384-28.033021-28.10527-28.03302z m-273.285825-64.916673c5.888379 5.852254 13.619135 8.344881 21.27764 8.019756 7.730756 0.36125 15.497636-2.131377 21.349891-8.019756l138.683976-167.764623c10.945883-11.018133 10.945883-28.900021 0-39.954279a28.148621 28.148621 0 0 0-39.845904 0l-92.516193 111.987582v-428.442814c0-15.569886-12.535384-28.105271-28.10527-28.10527-15.497636 0-28.033021 12.535384-28.033021 28.10527v427.359063l-91.613067-110.939956a28.148621 28.148621 0 0 0-39.845904 0c-10.945883 11.018133-10.945883 28.900021 0 39.954279l138.647852 167.800748z"  horiz-adv-x="1024" />
      
      <glyph glyph-name="fenxiangyemian" unicode="&#59108;" d="M712.674522 468.062937c-40.74903 0-77.126931 17.701263-102.739575 45.481408l-156.31299-89.301066c3.901503-12.824384 6.574755-26.262894 6.574755-40.315529 0-22.867142-5.960629-44.108657-15.642136-63.146546l150.171735-85.833063c24.998518 38.870528 68.312425 64.844422 117.948211 64.844422 77.488182 0 140.309603-62.785296 140.309603-140.273477s-62.821421-140.309603-140.309603-140.309603c-77.488182 0-140.201228 62.785296-140.201228 140.309603 0 5.165879 0.975376 10.151132 1.517251 15.136386l-169.932124 97.067946 0.614125 1.156001c-23.661892-18.062513-52.742539-29.189021-84.785437-29.189022-77.415932 0-140.201228 62.785296-140.201227 140.273478s62.821421 140.201228 140.201227 140.201228c40.82128 0 77.235307-17.629013 102.847951-45.373034l156.312989 89.228816c-3.901503 12.896634-6.574755 26.226769-6.574755 40.279404 0 77.488182 62.713046 140.309603 140.201228 140.309603 77.488182 0 140.309603-62.821421 140.309603-140.309603 0-77.452057-62.821421-140.237353-140.309603-140.237352z m0-392.787413c46.529034 0 84.171312 37.714528 84.171312 84.171312 0 46.529034-37.642278 84.171312-84.171312 84.171311-46.420659 0-84.171312-37.642278-84.171312-84.171311 0.036125-46.456784 37.750653-84.171312 84.171312-84.171312zM319.923234 468.062937c-46.456784 0-84.171312-37.714528-84.171311-84.171312 0-46.529034 37.714528-84.171312 84.171311-84.171312 46.529034 0 84.171312 37.642278 84.171312 84.171312-0.036125 46.456784-37.642278 84.171312-84.171312 84.171312z m392.751288 224.444789c-46.420659 0-84.171312-37.714528-84.171312-84.243562 0-46.420659 37.714528-84.171312 84.171312-84.171311 46.529034 0 84.171312 37.714528 84.171312 84.171311 0 46.529034-37.642278 84.243562-84.171312 84.243562z"  horiz-adv-x="1024" />
      
      <glyph glyph-name="shualiwu" unicode="&#59109;" d="M735.722289-62.252452H286.83271c-61.918295 0-112.168207 50.249912-112.168207 112.276582V611.009666c0 62.02667 50.249912 112.276582 112.168207 112.276583h56.138291c0 61.918295 75.356805 112.168207 168.306498 112.168207 92.949693 0 168.306498-50.249912 168.306499-112.168207h56.138291c61.918295 0 112.168207-50.249912 112.168207-112.276583v-560.985536c0.036125-62.02667-50.249912-112.276582-112.168207-112.276582zM511.277499 779.42454c-61.990545 0-112.168207-17.448388-112.168207-56.138291h224.37254c0 38.689903-50.177662 56.138291-112.204333 56.138291z m280.510831-168.414874c0 31.031398-25.106893 56.138291-56.029916 56.138291h-56.138291v-168.306498h-56.138291V667.147957h-224.37254v-168.306498H342.971001V667.147957H286.83271c-30.959148 0-56.029916-25.070768-56.029916-56.138291v-448.817328h560.985536V611.009666z m0-504.95562H230.802794v-56.029916c0-31.031398 25.070768-56.138291 56.029916-56.138291h448.889579c30.959148 0 56.029916 25.106893 56.029916 56.138291v56.029916h0.036125z"  horiz-adv-x="1024" />
      
      <glyph glyph-name="youcunpan" unicode="&#59110;" d="M853.778875-36.314683H180.516757c-61.990545 0-112.168207 50.249912-112.168207 112.168207V693.049601c0 61.918295 50.177662 112.168207 112.168207 112.168208h673.262118c61.990545 0 112.168207-50.249912 112.168207-112.168208v-617.232202c0.036125-61.88217-50.141537-112.132082-112.168207-112.132082zM236.655048 749.115642H180.516757c-30.959148 0-56.138291-25.070768-56.138291-56.029916v-617.232202c0-30.959148 25.179143-56.029916 56.138291-56.029916h56.138291V749.115642z m673.262118-56.066041c0 30.959148-25.179143 56.029916-56.138291 56.029916H292.721089v-729.292034h561.093911c30.959148 0 56.138291 25.070768 56.138291 56.029916V693.049601h-0.036125z m-84.135186-336.612996h-343.296127l110.939957-91.613067c11.018133-11.018133 11.018133-28.900021 0-39.845904-11.018133-11.018133-28.900021-11.018133-39.95428 0l-167.764622 138.611726c-5.888379 5.852254-8.344881 13.691385-8.019756 21.349891-0.36125 7.658506 2.131377 15.497636 8.019756 21.34989l167.764622 138.611727c11.018133 11.018133 28.900021 11.018133 39.95428 0 11.018133-10.945883 11.018133-28.827771 0-39.773654l-111.987582-92.624568h344.379877c15.497636 0 28.033021-12.535384 28.03302-28.033021-0.07225-15.497636-12.607634-28.033021-28.069145-28.03302z"  horiz-adv-x="1024" />
      
      <glyph glyph-name="fuzhilianjie" unicode="&#59111;" d="M913.659999 584.649381l-200.595195-200.595195c-29.621477-29.621477-71.416658-38.977528-109.238226-28.899002l269.736056 269.627685c22.14386 22.14386 22.14386 58.086993 0 80.230854l-40.169612 40.097365c-22.14386 22.14386-58.086993 22.14386-80.230853 0l-269.627686-269.736057c-10.042403 37.821568-0.722475 79.61675 28.899002 109.238226l200.595195 200.595195c44.28772 44.28772 116.173987 44.28772 160.497831 0l40.133488-40.133488c44.28772-44.251596 44.28772-116.137863 0-160.425583z m-310.917134-110.755424c11.126116-11.017744 11.126116-29.007373 0-40.133489l-140.3769-140.3769c-11.126116-11.126116-29.07962-11.126116-40.133489 0-11.126116 11.017744-11.126116 29.007373 0 40.133488l140.376901 140.376901c11.126116 11.126116 29.07962 11.126116 40.133488 0zM151.448831 63.166896l40.133488-40.133489c22.14386-22.14386 58.086993-22.14386 80.230853 0l269.627686 269.627686c10.042403-37.713197 0.614104-79.508378-29.007373-109.165979l-200.522948-200.595195c-44.28772-44.28772-116.173987-44.28772-160.49783 0L111.279218 23.033407c-44.28772 44.28772-44.28772 116.173987 0 160.497831l200.595196 200.522948c29.621477 29.621477 71.416658 39.049776 109.165978 29.007373l-269.627685-269.627686c-22.107736-22.179984-22.107736-58.123117 0.036124-80.266977z"  horiz-adv-x="1024" />
      
      <glyph glyph-name="guanyu" unicode="&#59112;" d="M927.871305 355.099979l-168.053623-135.8301c-11.018133-10.837508-29.008396-10.837508-40.02653 0a27.115445 27.115445 0 0 0 0 38.978904l145.619982 117.767586-145.619982 117.695336a27.202145 27.202145 0 0 0 0 39.051154c11.018133 10.765258 29.008396 10.765258 40.02653 0l168.053623-135.8301c5.888379-5.780004 8.344881-13.43851 8.019755-20.91639 0.325125-7.586256-2.167502-15.208636-8.019755-20.91639z m-557.987159-323.391237c-7.839131-13.14951-20.302265-15.280886-38.328653-10.042757-14.847386 4.262753-18.062513 24.384393-10.331758 37.533902L671.925492 734.882382c7.730756 13.14951 24.926268 17.701263 38.328653 10.151132 13.43851-7.658506 17.954138-24.456643 10.223383-37.642277l-350.593382-675.682495z m-59.678544 187.561137c-11.018133-10.837508-28.900021-10.837508-39.954279 0l-168.125873 135.8301c-5.888379 5.707754-8.344881 13.330135-8.019756 20.91639-0.36125 7.47788 2.131377 15.136386 8.019756 20.91639l168.125873 135.8301c11.018133 10.765258 28.900021 10.765258 39.954279 0a27.014295 27.014295 0 0 0 0-39.051154l-145.619981-117.695336 145.619981-117.767586c11.126508-10.801383 11.126508-28.213646 0-38.978904z"  horiz-adv-x="1024" />
      
      <glyph glyph-name="wangluogequ" unicode="&#59113;" d="M514.420377-63.480703c-247.853807 0-448.817329 200.963522-448.817329 448.817329 0 247.926057 200.963522 448.817329 448.817329 448.817329 247.926057 0 448.889579-200.891272 448.889579-448.817329 0.036125-247.853807-200.927397-448.817329-448.889579-448.817329z m325.341988 229.141043a388.85701 388.85701 0 0 1 66.361674 191.60714h-224.553165c-1.408876-52.236788-5.780004-103.100826-14.052635-151.761236 60.762295-8.525506 118.526212-21.964016 172.244126-39.845904z m-436.173569 191.643265c1.517251-49.382911 5.960629-98.043322 14.413885-144.644605 31.573273 2.745502 63.688422 4.371128 96.453821 4.371128 32.837649 0 64.952798-1.625626 96.52607-4.371128 8.453256 46.601284 12.896634 95.29782 14.413886 144.644605h-221.807662z m221.771537 56.029916c-1.517251 49.455161-5.960629 98.043322-14.413886 144.644606-31.573273-2.745502-63.688422-4.371128-96.52607-4.371128-32.729274 0-64.844422 1.589501-96.453821 4.371128-8.453256-46.637409-12.896634-95.189445-14.413885-144.644606h221.807662z m175.784379-295.972341c-45.806534 14.413886-94.214069 25.432019-144.644606 32.909899-11.740634-51.405913-27.057645-100.174698-45.734284-145.258732 74.128554 18.676639 139.767727 58.341918 190.37889 112.348833z m-313.92648-123.403091c9.067382-0.614125 18.062513-1.408876 27.23827-1.408876 9.248007 0 18.243138 0.794751 27.31052 1.408876 23.842517 49.744161 43.133282 105.051577 57.474917 163.682495-27.852395 2.492627-56.138291 3.901503-84.785437 3.901503-28.574896 0-56.860792-1.408876-84.677062-3.901503 14.269385-58.594793 33.596275-113.938333 57.438792-163.682495z m-69.034926 11.054258c-18.676639 45.120158-33.99365 93.852819-45.734283 145.258732-50.430537-7.47788-98.838072-18.496014-144.644606-32.909899 50.611162-54.006915 116.250335-93.672194 190.378889-112.348833z m-56.752416 200.493897c-8.272631 48.660411-12.643759 99.560573-14.052636 151.761236H122.82509c4.985254-70.732802 28.719396-136.19135 66.361674-191.60714 53.717914 17.881888 111.481832 31.320398 172.244126 39.845904zM189.186764 604.976787C151.544486 549.524871 127.810344 484.066323 122.82509 413.333521h224.553164c1.408876 52.236788 5.780004 103.100826 14.052636 151.761237-60.762295 8.633881-118.526212 22.000141-172.244126 39.882029z m38.617653 48.37141c45.806534-14.522261 94.214069-25.540394 144.644606-33.018274 11.740634 51.442038 27.057645 100.174698 45.734283 145.294857-74.128554-18.676639-139.767727-58.341918-190.378889-112.276583z m313.92648 123.294716c-9.067382 0.614125-18.062513 1.408876-27.31052 1.408876-9.175757 0-18.134763-0.794751-27.23827-1.408876-23.842517-49.744161-43.133282-104.979327-57.474917-163.682495 27.852395-2.492627 56.138291-3.901503 84.677062-3.901503 28.647146 0 56.933042 1.408876 84.785437 3.901503-14.269385 58.739293-33.596275 113.974458-57.438792 163.682495z m69.034925-11.018133c18.676639-45.120158 33.99365-93.852819 45.734284-145.294857 50.430537 7.47788 98.838072 18.496014 144.644606 33.018274-50.611162 53.934665-116.250335 93.599944-190.37889 112.276583z m56.752417-200.530022c8.272631-48.660411 12.643759-99.560573 14.052635-151.761237h224.553165c-4.985254 70.732802-28.719396 136.19135-66.361674 191.607141-53.717914-17.845763-111.481832-31.212023-172.244126-39.845904z"  horiz-adv-x="1024" />
      
      <glyph glyph-name="paihangbanggequ" unicode="&#59114;" d="M821.302477-63.480703h-56.029916c-31.031398 0-56.138291 25.070768-56.138292 56.029916V329.198335c0 31.067523 25.070768 56.138291 56.138292 56.138291h56.029916c31.031398 0 56.138291-25.070768 56.138291-56.138291v-336.649122c0-30.959148-25.106893-56.029916-56.138291-56.029916z m0 364.646017c0 15.497636-12.535384 28.033021-28.033021 28.033021-15.497636 0-28.033021-12.535384-28.033021-28.033021v-280.474705c0-15.497636 12.535384-28.105271 28.033021-28.105271 15.497636 0 28.033021 12.643759 28.033021 28.105271v280.474705zM540.791646-63.480703h-56.138291c-30.959148 0-56.138291 25.070768-56.138291 56.029916V778.087914c0 30.959148 25.179143 56.029916 56.138291 56.029916h56.138291c30.959148 0 56.138291-25.070768 56.138291-56.029916v-785.538701c0-30.959148-25.179143-56.029916-56.138291-56.029916z m0 813.463346c0 15.569886-12.535384 28.105271-28.03302 28.105271-15.569886 0-28.105271-12.535384-28.105271-28.105271V20.690609c0-15.497636 12.535384-28.105271 28.105271-28.105271 15.461511 0 28.033021 12.643759 28.03302 28.105271V749.982643zM260.208566-63.480703H204.17865c-31.031398 0-56.138291 25.070768-56.138292 56.029916V525.610104c0 30.959148 25.070768 56.029916 56.138292 56.029916h56.029916c31.031398 0 56.138291-25.070768 56.138291-56.029916v-533.060891c0-30.959148-25.106893-56.029916-56.138291-56.029916z m0 560.985536c0 15.569886-12.535384 28.105271-28.033021 28.105271-15.497636 0-28.033021-12.535384-28.03302-28.105271V20.690609c0-15.497636 12.535384-28.105271 28.03302-28.105271 15.497636 0 28.033021 12.643759 28.033021 28.105271V497.504833z"  horiz-adv-x="1024" />
      
      <glyph glyph-name="gouwuche" unicode="&#59115;" d="M946.656318 579.328018l-84.171311-336.649122c0-61.918295-50.249912-112.168207-112.168207-112.168207h-308.616101c-61.990545 0-112.168207 50.249912-112.168208 112.168207L273.3942 579.328018h0.252875L217.255909 747.634516H77.054681c-15.569886 0-28.105271 12.535384-28.10527 28.105271 0 15.461511 12.535384 28.033021 28.10527 28.03302h181.564383l70.010302-224.444789h618.026952zM338.852748 523.189727l46.709659-280.510831c0-30.959148 25.179143-56.138291 56.138292-56.138291h308.616101c30.959148 0 56.029916 25.179143 56.029916 56.138291l70.190926 280.510831H338.852748z m102.847951-448.817329c30.959148 0 56.138291-25.070768 56.138291-56.138291 0-30.959148-25.179143-56.029916-56.138291-56.029916s-56.138291 25.070768-56.138292 56.029916c0 31.067523 25.179143 56.138291 56.138292 56.138291z m280.51083 0c31.067523 0 56.138291-25.070768 56.138291-56.138291 0-30.959148-25.070768-56.029916-56.138291-56.029916-30.959148 0-56.029916 25.070768-56.029916 56.029916-0.036125 31.067523 25.070768 56.138291 56.029916 56.138291z"  horiz-adv-x="1024" />
      
      <glyph glyph-name="yinfu03" unicode="&#59116;" d="M848.649122 834.11783H175.387003c-61.990545 0-112.168207-50.177662-112.168207-112.168207V160.855712c0-61.918295 50.177662-112.204332 112.168207-112.204333h673.262119c61.990545 0 112.168207 50.286037 112.168207 112.204333V721.949623c0 61.990545-50.177662 112.168207-112.168207 112.168207z m56.138291-673.262118c0-30.959148-25.179143-56.066041-56.138291-56.066041H175.387003c-30.959148 0-56.138291 25.106893-56.138291 56.066041V721.949623c0 30.959148 25.179143 56.138291 56.138291 56.138291h673.262119c30.959148 0 56.138291-25.179143 56.138291-56.138291V160.855712zM848.649122 385.336626c0.252875 1.517251 0 308.616101 0 308.616101 0 15.497636-12.535384 28.033021-28.033021 28.033021L455.861709 665.811331c-15.497636 0-28.033021-12.535384-28.033021-28.03302v-237.341424c-43.313907 19.83264-104.437451 16.725887-159.672617-13.330135-78.210682-42.519156-114.155084-121.705214-80.342058-176.940379 33.885275-55.235165 133.807098-63.688422 211.981655-21.169266 60.94292 33.090524 87.639314 91.179567 84.171311 140.201228 0.252875 1.589501 0 284.845834 0 284.845833l308.507726 47.50441v-204.9734c-43.313907 19.83264-104.437451 16.617512-159.672617-13.330135-78.210682-42.519156-114.155084-121.777464-80.233683-177.048754 33.813025-55.235165 133.698723-63.688422 211.909405-21.169266 61.01517 33.162774 87.639314 91.251817 84.171312 140.309603zM375.0139 233.467015c-49.021661-27.563395-109.494955-23.409017-133.265223 5.707754-23.661892 29.080646-2.420377 73.658929 47.43216 99.632823 49.816411 25.901644 94.394694 25.901644 122.75284 3.395752 35.113526-27.780145 5.852254-84.532562-36.919777-108.736329z m364.826642 56.318916c-48.913286-27.74402-109.422705-23.734142-133.156848 5.238129-23.842517 29.008396-2.745502 73.658929 46.962535 99.741198 49.816411 26.082269 93.130318 24.637268 122.75284 3.829253 38.256403-26.87702 7.911381-83.629436-36.558527-108.80858zM147.353983-7.450787h729.328159c15.569886 0 28.105271-12.535384 28.105271-28.03302 0-15.497636-12.535384-28.033021-28.105271-28.033021H147.353983c-15.461511 0-28.105271 12.535384-28.105271 28.033021 0 15.497636 12.607634 28.033021 28.105271 28.03302z"  horiz-adv-x="1024" />
      
      <glyph glyph-name="yinfu02" unicode="&#59117;" d="M734.241163 779.966415c-0.4335 15.136386-13.00501 28.033021-28.285896 28.033021-26.94927 0-28.213646-28.105271-28.213646-28.105271v-458.968461c-62.713046 46.240034-166.283497 46.348409-258.004939-6.32188-114.046709-65.458548-162.887744-187.452762-117.08121-272.418824 46.709659-86.555563 181.853383-100.861074 295.791716-35.402526 88.506315 50.791787 136.010725 133.337473 135.75785 212.09003V779.966415h0.036125z m-153.170112-726.257532c-83.701686-51.333663-185.646511-49.093911-226.034291 10.404008-40.38778 59.534044-3.757003 153.459112 79.691808 205.226275 83.376561 51.767163 188.428138 46.348409 228.815918-13.14951 39.737529-64.266422-7.658506-156.493615-82.473435-202.480773z"  horiz-adv-x="1024" />
      
      <glyph glyph-name="goumailan" unicode="&#59118;" d="M929.605306 526.838355h-28.033021l-56.138291-392.679038c0-61.990545-50.177662-112.276582-112.168207-112.276582H256.343188c-61.918295 0-112.168207 50.249912-112.168207 112.276582l-28.033021 392.679038h-28.105271c-15.497636 0-28.033021 12.643759-28.03302 28.10527a28.033021 28.033021 0 0 0 28.03302 28.033021h186.477387L214.257532 695.253228H144.138856c-15.497636 0-28.033021 12.535384-28.033021 28.033021a28.033021 28.033021 0 0 0 28.033021 28.03302h112.168207l88.867565-168.306498h329.604741l86.483314 168.306498h112.276582a28.033021 28.033021 0 0 0 28.03302-28.03302c0-15.497636-12.535384-28.033021-28.03302-28.033021h-70.190927l-56.824666-112.276582h183.081634c15.497636 0 28.105271-12.535384 28.10527-28.033021 0-15.461511-12.643759-28.105271-28.10527-28.10527z m-589.126932 0H172.171876l8.019756-112.168208h160.322867v112.168208h-0.036125z m0-168.306499H184.20151l8.019756-112.168207h148.293233v112.168207h-0.036125z m0-168.306498H196.195019l4.082128-56.029916c0-31.031398 25.070768-56.138291 56.029916-56.138291h84.171311v112.168207z m336.649122-112.204332h56.138291c30.959148 0 56.138291 25.070768 56.138291 56.138291l8.019756 56.029916h-120.260213v-112.168207h-0.036125z m0 168.342623h128.279969l16.003387 112.168207h-144.283356v-112.168207z m-56.066041 280.474706h-224.44479v-112.168208h224.44479v112.168208z m0-168.306499h-224.44479v-112.168207h224.44479v112.168207z m0-168.306498h-224.44479v-112.168207h224.44479v112.168207z m56.066041 336.612997v-112.168208h152.303111l16.003387 112.168208h-168.306498z"  horiz-adv-x="1024" />
      
      <glyph glyph-name="kuaijin" unicode="&#59119;" d="M827.732731 362.830734L520.922882 56.454385c-11.126508-11.018133-29.008396-11.018133-40.02653 0-11.018133 11.018133-11.018133 28.900021 0 39.954279l288.964087 288.494462-288.964087 288.494461c-11.018133 11.018133-11.018133 28.900021 0 39.954279 11.018133 11.018133 28.900021 11.018133 40.02653 0l306.845974-306.304099c6.032879-6.141254 8.453256-14.23326 7.839131-22.144641 0.578-7.911381-1.806251-16.003387-7.875256-22.072392z m-331.555493 22.072392c0.614125-7.911381-1.770126-16.003387-7.83913-22.072392l-250.346434-249.876808c-11.018133-11.018133-28.900021-11.018133-39.954279 0-11.018133 11.018133-11.018133 28.900021 0 39.95428l232.35617 231.99492-232.320045 232.103295a28.148621 28.148621 0 0 0 0 39.845904c11.018133 11.054258 28.900021 11.054258 39.954279 0l250.346434-249.804558c6.032879-6.141254 8.417131-14.23326 7.803005-22.144641z"  horiz-adv-x="1024" />
      
      <glyph glyph-name="zuocunpan" unicode="&#59120;" d="M845.217244-36.314683H171.955126c-61.918295 0-112.168207 50.249912-112.168207 112.168207V693.049601c0 61.918295 50.249912 112.168207 112.168207 112.168208h673.262118c61.990545 0 112.276582-50.249912 112.276582-112.168208v-617.232202c0-61.88217-50.249912-112.132082-112.276582-112.132082zM733.049037 749.115642H171.955126c-30.959148 0-56.029916-25.070768-56.029916-56.029916v-617.232202c0-30.959148 25.070768-56.029916 56.029916-56.029916h561.093911V749.115642z m168.306498-56.066041c0 30.959148-25.070768 56.029916-56.138291 56.029916h-56.029916v-729.292034h56.029916c31.031398 0 56.138291 25.070768 56.138291 56.029916V693.049601zM200.060397 412.466521h343.223876l-110.939956 91.721442c-11.018133 10.945883-11.018133 28.827771 0 39.773654 11.018133 11.018133 28.900021 11.018133 39.954279 0l167.764623-138.611726c5.888379-5.888379 8.381006-13.691385 8.019756-21.349891 0.36125-7.658506-2.131377-15.497636-8.019756-21.349891L472.298596 224.074508c-11.018133-11.018133-28.900021-11.018133-39.954279 0a28.148621 28.148621 0 0 0 0 39.845904l111.987582 92.516193h-344.271502c-15.569886 0-28.105271 12.535384-28.105271 28.03302 0 15.461511 12.535384 27.996896 28.105271 27.996896z"  horiz-adv-x="1024" />
      
      </font>
</defs>
</svg>
